<?xml version="1.0" standalone="no"?>
<!DOCTYPE svg PUBLIC "-//W3C//DTD SVG 1.1//EN" "http://www.w3.org/Graphics/SVG/1.1/DTD/svg11.dtd" >
<svg>
<metadata>
Created by FontForge 20090914 at Sun Jan 28 12:47:49 2018
 By www-data
&#194;&#169; 2016-18 memesbruh03. Aerx Tablets is made by PointCoded, nguyenjimbo, and the Plutonium creators.
</metadata>
<defs>
<font id="AerxTablets-Regular" horiz-adv-x="384" >
  <font-face 
    font-family="Aerx Tablets"
    font-weight="400"
    font-stretch="normal"
    units-per-em="1024"
    panose-1="2 0 6 9 0 0 0 0 0 0"
    ascent="819"
    descent="-205"
    x-height="320"
    cap-height="384"
    bbox="0 -192 384 576"
    underline-thickness="50"
    underline-position="-103"
    unicode-range="U+0020-U+FB02"
  />
<missing-glyph 
d="M256 0h-64h-64h-64h-64v64v64v64v64v64h64h64h64h64h64v-64v-64v-64v-64v-64h-64zM192 64h64v64v64v64h-64h-64h-64v-64v-64v-64h64h64z" />
    <glyph glyph-name=".notdef" 
d="M256 0h-64h-64h-64h-64v64v64v64v64v64h64h64h64h64h64v-64v-64v-64v-64v-64h-64zM192 64h64v64v64v64h-64h-64h-64v-64v-64v-64h64h64z" />
    <glyph glyph-name="space" unicode=" " 
 />
    <glyph glyph-name="exclam" unicode="!" 
d="M128 0v64h64v-64h-64zM128 128v64v64v64v64h64v-64v-64v-64v-64h-64z" />
    <glyph glyph-name="quotedbl" unicode="&#x22;" 
d="M192 192v64v64v64h64v-64v-64v-64h-64zM64 192v64v64v64h64v-64v-64v-64h-64z" />
    <glyph glyph-name="numbersign" unicode="#" 
d="M192 0v64h-64v-64h-64v64h-64v64h64v64h-64v64h64v64h64v-64h64v64h64v-64h64v-64h-64v-64h64v-64h-64v-64h-64zM192 128v64h-64v-64h64z" />
    <glyph glyph-name="dollar" unicode="$" 
d="M192 0h-64h-64h-64v64h64h64v64h-64v64h-64v64h64v64h64v64h64v-64h64v-64h-64v-64h64v-64h64v-64h-64v64h-64v-64h64v-64h-64zM128 192v64h-64v-64h64z" />
    <glyph glyph-name="percent" unicode="%" 
d="M0 0v64h64v-64h-64zM256 0h-64v64v64h64h64v-64v-64h-64zM64 64v64h64v-64h-64zM192 128h-64v64h64v-64zM192 192v64h64v-64h-64zM128 192h-64h-64v64v64h64h64v-64v-64zM256 256v64h64v-64h-64z" />
    <glyph glyph-name="ampersand" unicode="&#x26;" 
d="M256 0v64h64v-64h-64zM128 64h64v-64h-64h-64v64h64zM256 64h-64v64h64v-64zM64 64h-64v64v64h64v-64v-64zM256 128v64h64v-64h-64zM192 128h-64v64h-64v64v64h64v-64h64v-64v-64zM192 256v64h64v-64h-64zM192 320h-64v64h64v-64z" />
    <glyph glyph-name="quotesingle" unicode="'" 
d="M128 192v64v64v64h64v-64v-64v-64h-64z" />
    <glyph glyph-name="parenleft" unicode="(" 
d="M64 0v64h64v-64h-64zM64 64h-64v64v64v64v64h64v-64v-64v-64v-64zM64 320v64h64v-64h-64z" />
    <glyph glyph-name="parenright" unicode=")" 
d="M0 0v64h64v-64h-64zM64 64v64v64v64v64h64v-64v-64v-64v-64h-64zM64 320h-64v64h64v-64z" />
    <glyph glyph-name="asterisk" unicode="*" 
d="M192 128v64h64v-64h-64zM0 128v64h64v-64h-64zM192 192h-64h-64v64h64h64v-64zM192 256v64h64v-64h-64zM64 256h-64v64h64v-64z" />
    <glyph glyph-name="plus" unicode="+" 
d="M128 0v64v64h-64h-64v64h64h64v64v64h64v-64v-64h64h64v-64h-64h-64v-64v-64h-64z" />
    <glyph glyph-name="comma" unicode="," 
d="M64 0v64h64v-64h-64zM128 64v64v64h64v-64v-64h-64z" />
    <glyph glyph-name="hyphen" unicode="-" 
d="M256 192h64v-64h-64h-64h-64h-64h-64v64h64h64h64h64z" />
    <glyph glyph-name="period" unicode="." 
d="M64 0v64v64h64v-64v-64h-64z" />
    <glyph glyph-name="slash" unicode="/" 
d="M64 0v64h64v-64h-64zM128 64v64v64h64v-64v-64h-64zM192 192v64v64h64v-64v-64h-64zM256 320v64h64v-64h-64z" />
    <glyph glyph-name="zero" unicode="0" 
d="M192 64h64v-64h-64h-64h-64v64h64h64zM256 64v64v64v64h-64v-64h-64v64h64v64h-64h-64v-64v-64h64v-64h-64v-64h-64v64v64v64v64h64v64h64h64h64v-64h64v-64v-64v-64v-64h-64z" />
    <glyph glyph-name="one" unicode="1" 
d="M192 0h-64h-64v64h64v64v64v64h-64v64h64v64h64v-64v-64v-64v-64v-64h64v-64h-64z" />
    <glyph glyph-name="two" unicode="2" 
d="M0 256v64h64v-64h-64zM256 64h64v-64h-64h-64h-64h-64h-64v64h64v64h64v-64h64h64zM128 128v64h64v-64h-64zM192 192v64h64v-64h-64zM256 256v64h64v-64h-64zM256 320h-64h-64h-64v64h64h64h64v-64z" />
    <glyph glyph-name="three" unicode="3" 
d="M192 64h64v-64h-64h-64h-64v64h64h64zM256 64v64v64h64v-64v-64h-64zM64 64h-64v64h64v-64zM256 192h-64h-64h-64v64h64h64h64v-64zM256 256v64h-64h-64h-64h-64v64h64h64h64h64h64v-64v-64h-64z" />
    <glyph glyph-name="four" unicode="4" 
d="M192 0v64h-64h-64h-64v64v64h64v64h64v64h64v64h64v-64v-64v-64v-64h64v-64h-64v-64h-64zM128 128h64v64v64h-64v-64h-64v-64h64z" />
    <glyph glyph-name="five" unicode="5" 
d="M192 64h64v-64h-64h-64h-64v64h64h64zM256 64v64v64h64v-64v-64h-64zM64 64h-64v64h64v-64zM256 192h-64h-64h-64h-64v64v64v64h64h64h64h64h64v-64h-64h-64h-64h-64v-64h64h64h64v-64z" />
    <glyph glyph-name="six" unicode="6" 
d="M192 64h64v-64h-64h-64h-64v64h64h64zM256 64v64v64h64v-64v-64h-64zM64 64h-64v64v64v64v64h64v-64h64h64h64v-64h-64h-64h-64v-64v-64zM192 384h64v-64h-64h-64h-64v64h64h64z" />
    <glyph glyph-name="seven" unicode="7" 
d="M128 0v64v64v64h64v-64v-64v-64h-64zM192 192v64h64v-64h-64zM256 256v64h-64h-64h-64h-64v64h64h64h64h64h64v-64v-64h-64z" />
    <glyph glyph-name="eight" unicode="8" 
d="M192 64h64v-64h-64h-64h-64v64h64h64zM256 64v64v64h64v-64v-64h-64zM64 64h-64v64v64h64v-64v-64zM256 192h-64h-64h-64v64h64h64h64v-64zM256 256v64h64v-64h-64zM64 256h-64v64h64v-64zM256 320h-64h-64h-64v64h64h64h64v-64z" />
    <glyph glyph-name="nine" unicode="9" 
d="M192 64h64v-64h-64h-64h-64v64h64h64zM256 64v64h-64h-64h-64v64h64h64h64v64v64h64v-64v-64v-64v-64h-64zM64 192h-64v64v64h64v-64v-64zM256 320h-64h-64h-64v64h64h64h64v-64z" />
    <glyph glyph-name="colon" unicode=":" 
d="M128 64v64v64h64v-64v-64h-64zM128 256v64v64h64v-64v-64h-64z" />
    <glyph glyph-name="semicolon" unicode=";" 
d="M64 0v64h64v-64h-64zM128 256v64v64h64v-64v-64h-64zM128 64v64v64h64v-64v-64h-64z" />
    <glyph glyph-name="less" unicode="&#x3c;" 
d="M256 64h64v-64h-64h-64v64h64zM192 64h-64h-64v64h64h64v-64zM64 128h-64v64h64v-64zM128 256h64v-64h-64h-64v64h64zM256 320h64v-64h-64h-64v64h64z" />
    <glyph glyph-name="equal" unicode="=" 
d="M256 128h64v-64h-64h-64h-64h-64h-64v64h64h64h64h64zM256 256h64v-64h-64h-64h-64h-64h-64v64h64h64h64h64z" />
    <glyph glyph-name="greater" unicode="&#x3e;" 
d="M64 64h64v-64h-64h-64v64h64zM192 128h64v-64h-64h-64v64h64zM256 128v64h64v-64h-64zM256 192h-64h-64v64h64h64v-64zM128 256h-64h-64v64h64h64v-64z" />
    <glyph glyph-name="question" unicode="?" 
d="M128 0v64h64v-64h-64zM128 128v64h64v-64h-64zM0 256v64h64v-64h-64zM192 192v64h64v-64h-64zM256 256v64h64v-64h-64zM256 320h-64h-64h-64v64h64h64h64v-64z" />
    <glyph glyph-name="at" unicode="@" 
d="M192 64h64v-64h-64h-64h-64v64h64h64zM64 64h-64v64v64v64v64h64v-64v-64v-64v-64zM256 128h-64h-64v64v64h64v-64h64v64v64h64v-64v-64v-64h-64zM256 320h-64h-64h-64v64h64h64h64v-64z" />
    <glyph glyph-name="A" unicode="A" 
d="M256 0v64v64h-64h-64h-64v-64v-64h-64v64v64v64v64v64h64v-64v-64h64h64h64v64v64h64v-64v-64v-64v-64v-64h-64zM256 320h-64h-64h-64v64h64h64h64v-64z" />
    <glyph glyph-name="B" unicode="B" 
d="M192 64h64v64v64h-64h-64h-64v-64v-64h64h64zM192 0h-64h-64h-64v64v64v64v64v64v64h64h64h64h64v-64h64v-64h-64v64h-64h-64h-64v-64h64h64h64v-64h64v-64v-64h-64v-64h-64z" />
    <glyph glyph-name="C" unicode="C" 
d="M256 256v64h64v-64h-64zM192 64h64v-64h-64h-64h-64v64h64h64zM256 64v64h64v-64h-64zM64 64h-64v64v64v64v64h64v-64v-64v-64v-64zM256 320h-64h-64h-64v64h64h64h64v-64z" />
    <glyph glyph-name="D" unicode="D" 
d="M192 64h64v64v64v64v64h-64h-64h-64v-64v-64v-64v-64h64h64zM192 0h-64h-64h-64v64v64v64v64v64v64h64h64h64h64v-64h64v-64v-64v-64v-64h-64v-64h-64z" />
    <glyph glyph-name="E" unicode="E" 
d="M256 64h64v-64h-64h-64h-64h-64h-64v64v64v64v64v64v64h64h64h64h64h64v-64h-64h-64h-64h-64v-64h64h64h64v-64h-64h-64h-64v-64v-64h64h64h64z" />
    <glyph glyph-name="F" unicode="F" 
d="M0 0v64v64v64v64v64v64h64h64h64h64h64v-64h-64h-64h-64h-64v-64h64h64h64v-64h-64h-64h-64v-64v-64v-64h-64z" />
    <glyph glyph-name="G" unicode="G" 
d="M256 256v64h64v-64h-64zM256 0h-64h-64h-64v64h64h64h64v64h-64v64h64h64v-64v-64v-64h-64zM64 64h-64v64v64v64v64h64v-64v-64v-64v-64zM256 320h-64h-64h-64v64h64h64h64v-64z" />
    <glyph glyph-name="H" unicode="H" 
d="M256 0v64v64v64h-64h-64h-64v-64v-64v-64h-64v64v64v64v64v64v64h64v-64v-64h64h64h64v64v64h64v-64v-64v-64v-64v-64v-64h-64z" />
    <glyph glyph-name="I" unicode="I" 
d="M192 0h-64h-64v64h64v64v64v64v64h-64v64h64h64h64v-64h-64v-64v-64v-64v-64h64v-64h-64z" />
    <glyph glyph-name="J" unicode="J" 
d="M192 64h64v-64h-64h-64h-64v64h64h64zM256 64v64v64v64v64v64h64v-64v-64v-64v-64v-64h-64zM64 64h-64v64h64v-64z" />
    <glyph glyph-name="K" unicode="K" 
d="M256 0v64v64h64v-64v-64h-64zM0 0v64v64v64v64v64v64h64v-64v-64h64h64v-64h64v-64h-64v64h-64h-64v-64v-64v-64h-64zM192 256v64h64v-64h-64zM256 320v64h64v-64h-64z" />
    <glyph glyph-name="L" unicode="L" 
d="M256 64h64v-64h-64h-64h-64h-64h-64v64v64v64v64v64v64h64v-64v-64v-64v-64v-64h64h64h64z" />
    <glyph glyph-name="M" unicode="M" 
d="M256 0v64v64v64v64h-64v-64v-64h-64v64v64h64v64h64v64h64v-64v-64v-64v-64v-64v-64h-64zM0 0v64v64v64v64v64v64h64v-64h64v-64h-64v-64v-64v-64v-64h-64z" />
    <glyph glyph-name="N" unicode="N" 
d="M256 0v64v64h-64v64h64v64v64v64h64v-64v-64v-64v-64v-64v-64h-64zM0 0v64v64v64v64v64v64h64v-64h64v-64h64v-64h-64v64h-64v-64v-64v-64v-64h-64z" />
    <glyph glyph-name="O" unicode="O" 
d="M192 64h64v-64h-64h-64h-64v64h64h64zM256 64v64v64v64v64h64v-64v-64v-64v-64h-64zM64 64h-64v64v64v64v64h64v-64v-64v-64v-64zM256 320h-64h-64h-64v64h64h64h64v-64z" />
    <glyph glyph-name="P" unicode="P" 
d="M0 0v64v64v64v64v64v64h64h64h64h64v-64h64v-64v-64h-64v64v64h-64h-64h-64v-64v-64h64h64h64v-64h-64h-64h-64v-64v-64h-64z" />
    <glyph glyph-name="Q" unicode="Q" 
d="M64 0v64h64v-64h-64zM256 0h-64v64h-64v64h64h64v-64h64v-64h-64zM64 64h-64v64v64v64v64h64v-64v-64v-64v-64zM256 128v64v64v64h64v-64v-64v-64h-64zM256 320h-64h-64h-64v64h64h64h64v-64z" />
    <glyph glyph-name="R" unicode="R" 
d="M256 0v64h64v-64h-64zM0 0v64v64v64v64v64v64h64h64h64h64v-64h64v-64v-64h-64v64v64h-64h-64h-64v-64v-64h64h64h64v-64v-64h-64v64h-64h-64v-64v-64h-64z" />
    <glyph glyph-name="S" unicode="S" 
d="M192 64h64v-64h-64h-64h-64v64h64h64zM256 64v64v64h64v-64v-64h-64zM64 64h-64v64h64v-64zM256 192h-64h-64h-64v64h64h64h64v-64zM64 256h-64v64h64v-64zM192 384h64v-64h-64h-64h-64v64h64h64z" />
    <glyph glyph-name="T" unicode="T" 
d="M128 0v64v64v64v64v64h-64h-64v64h64h64h64h64h64v-64h-64h-64v-64v-64v-64v-64v-64h-64z" />
    <glyph glyph-name="U" unicode="U" 
d="M192 64h64v-64h-64h-64h-64v64h64h64zM256 64v64v64v64v64v64h64v-64v-64v-64v-64v-64h-64zM64 64h-64v64v64v64v64v64h64v-64v-64v-64v-64v-64z" />
    <glyph glyph-name="V" unicode="V" 
d="M128 0v64h64v-64h-64zM192 64v64h64v-64h-64zM128 64h-64v64h64v-64zM256 128v64v64v64v64h64v-64v-64v-64v-64h-64zM64 128h-64v64v64v64v64h64v-64v-64v-64v-64z" />
    <glyph glyph-name="W" unicode="W" 
d="M256 0v64h-64v64h64v64v64v64v64h64v-64v-64v-64v-64v-64v-64h-64zM0 0v64v64v64v64v64v64h64v-64v-64v-64v-64h64v-64h-64v-64h-64zM192 128h-64v64v64h64v-64v-64z" />
    <glyph glyph-name="X" unicode="X" 
d="M256 0v64v64h64v-64v-64h-64zM0 0v64v64h64v-64v-64h-64zM256 128h-64v64h64v-64zM64 128v64h64v-64h-64zM192 192h-64v64h64v-64zM192 256v64h64v-64h-64zM128 256h-64v64h64v-64zM256 320v64h64v-64h-64zM64 320h-64v64h64v-64z" />
    <glyph glyph-name="Y" unicode="Y" 
d="M128 0v64v64v64h64v-64v-64v-64h-64zM192 192v64h64v-64h-64zM128 192h-64v64h64v-64zM256 256v64v64h64v-64v-64h-64zM64 256h-64v64v64h64v-64v-64z" />
    <glyph glyph-name="Z" unicode="Z" 
d="M256 64h64v-64h-64h-64h-64h-64h-64v64h64v64h64v-64h64h64zM128 128v64h64v-64h-64zM192 192v64h64v-64h-64zM256 256v64h-64h-64h-64h-64v64h64h64h64h64h64v-64v-64h-64z" />
    <glyph glyph-name="bracketleft" unicode="[" 
d="M256 64h64v-64h-64h-64h-64v64v64v64v64v64v64h64h64h64v-64h-64h-64v-64v-64v-64v-64h64z" />
    <glyph glyph-name="backslash" unicode="\" 
d="M256 0v64h64v-64h-64zM256 64h-64v64v64h64v-64v-64zM192 192h-64v64v64h64v-64v-64zM128 320h-64v64h64v-64z" />
    <glyph glyph-name="bracketright" unicode="]" 
d="M128 0h-64h-64v64h64h64v64v64v64v64h-64h-64v64h64h64h64v-64v-64v-64v-64v-64v-64h-64z" />
    <glyph glyph-name="asciicircum" unicode="^" 
d="M256 192v64h64v-64h-64zM0 192v64h64v-64h-64zM256 256h-64v64h64v-64zM64 256v64h64v-64h-64zM192 320h-64v64h64v-64z" />
    <glyph glyph-name="underscore" unicode="_" 
d="M256 64h64v-64h-64h-64h-64h-64h-64v64h64h64h64h64z" />
    <glyph glyph-name="grave" unicode="`" 
d="M192 192v64h64v-64h-64zM192 256h-64v64h64v-64zM128 320h-64v64h64v-64z" />
    <glyph glyph-name="a" unicode="a" 
d="M256 0h-64h-64h-64v64h-64v64h64v64h64h64h64v64h64v-64v-64v-64v-64h-64zM192 64h64v64h-64h-64h-64v-64h64h64zM256 256h-64h-64h-64v64h64h64h64v-64z" />
    <glyph glyph-name="b" unicode="b" 
d="M128 64h64v64v64h-64h-64v-64v-64h64zM128 0h-64h-64v64v64v64v64v64v64v64h64v-64v-64v-64h64h64v-64h64v-64v-64h-64v-64h-64z" />
    <glyph glyph-name="c" unicode="c" 
d="M192 64h64v-64h-64h-64h-64v64h64h64zM256 64v64h64v-64h-64zM64 64h-64v64v64v64h64v-64v-64v-64zM192 320h64v-64h-64h-64h-64v64h64h64z" />
    <glyph glyph-name="d" unicode="d" 
d="M256 0h-64h-64v64h-64v64v64h64v64h64h64v64v64v64h64v-64v-64v-64v-64v-64v-64v-64h-64zM192 64h64v64v64h-64h-64v-64v-64h64z" />
    <glyph glyph-name="e" unicode="e" 
d="M192 64h64v-64h-64h-64h-64v64h64h64zM64 64h-64v64v64v64h64v-64h64h64h64v64h64v-64v-64h-64h-64h-64h-64v-64zM256 256h-64h-64h-64v64h64h64h64v-64z" />
    <glyph glyph-name="f" unicode="f" 
d="M64 0v64v64v64v64v64h64v-64h64h64v-64h-64h-64v-64v-64v-64h-64zM192 384h64v-64h-64h-64v64h64z" />
    <glyph glyph-name="g" unicode="g" 
d="M192 64h64v-64h-64h-64h-64v64h64h64zM256 64v64h-64h-64h-64v64h-64v64h64v64h64h64h64h64v-64v-64v-64v-64h-64zM192 192h64v64h-64h-64h-64v-64h64h64z" />
    <glyph glyph-name="h" unicode="h" 
d="M256 0v64v64v64h64v-64v-64v-64h-64zM0 0v64v64v64v64v64v64h64v-64v-64v-64h64v-64h-64v-64v-64h-64zM256 192h-64h-64v64h64h64v-64z" />
    <glyph glyph-name="i" unicode="i" 
d="M128 320v64h64v-64h-64zM192 0h-64h-64v64h64v64v64h-64v64h64h64v-64v-64v-64h64v-64h-64z" />
    <glyph glyph-name="j" unicode="j" 
d="M128 0v64h64v-64h-64zM192 320v64h64v-64h-64zM192 64v64v64h-64v64h64h64v-64v-64v-64h-64zM128 64h-64v64h64v-64z" />
    <glyph glyph-name="k" unicode="k" 
d="M192 0v64h64v-64h-64zM0 0v64v64v64v64v64v64h64v-64v-64v-64h64v-64h64v-64h-64v64h-64v-64v-64h-64zM128 192v64h64v-64h-64z" />
    <glyph glyph-name="l" unicode="l" 
d="M192 0h-64h-64v64h64v64v64v64v64h-64v64h64h64v-64v-64v-64v-64v-64h64v-64h-64z" />
    <glyph glyph-name="m" unicode="m" 
d="M256 0v64v64v64v64h64v-64v-64v-64v-64h-64zM128 0v64v64v64v64h64v-64v-64v-64v-64h-64zM0 0v64v64v64v64v64h64h64v-64h-64v-64v-64v-64v-64h-64zM256 256h-64v64h64v-64z" />
    <glyph glyph-name="n" unicode="n" 
d="M256 0v64v64v64v64h64v-64v-64v-64v-64h-64zM0 0v64v64v64v64v64h64v-64h64v-64h-64v-64v-64v-64h-64zM256 256h-64h-64v64h64h64v-64z" />
    <glyph glyph-name="o" unicode="o" 
d="M192 64h64v-64h-64h-64h-64v64h64h64zM256 64v64v64v64h64v-64v-64v-64h-64zM64 64h-64v64v64v64h64v-64v-64v-64zM256 256h-64h-64h-64v64h64h64h64v-64z" />
    <glyph glyph-name="p" unicode="p" 
d="M0 -64v64v64v64v64v64v64h64h64h64v-64h64v-64v-64h-64v64v64h-64h-64v-64v-64h64h64v-64h-64h-64v-64v-64h-64z" />
    <glyph glyph-name="q" unicode="q" 
d="M256 -64v64v64h-64h-64v64h-64v64v64h64v64h64h64h64v-64v-64v-64v-64v-64v-64h-64zM192 128h64v64v64h-64h-64v-64v-64h64z" />
    <glyph glyph-name="r" unicode="r" 
d="M0 0v64v64v64v64v64h64v-64h64v-64h-64v-64v-64v-64h-64zM256 192v64h64v-64h-64zM256 256h-64h-64v64h64h64v-64z" />
    <glyph glyph-name="s" unicode="s" 
d="M192 64h64v-64h-64h-64h-64h-64v64h64h64h64zM256 64v64h64v-64h-64zM256 128h-64h-64h-64v64h64h64h64v-64zM64 192h-64v64h64v-64zM256 320h64v-64h-64h-64h-64h-64v64h64h64h64z" />
    <glyph glyph-name="t" unicode="t" 
d="M128 0v64h64v-64h-64zM192 64v64h64v-64h-64zM128 64h-64v64v64v64h-64v64h64v64h64v-64h64v-64h-64v-64v-64v-64z" />
    <glyph glyph-name="u" unicode="u" 
d="M256 0v64h-64v-64h-64h-64v64h64h64v64h64v64v64v64h64v-64v-64v-64v-64v-64h-64zM64 64h-64v64v64v64v64h64v-64v-64v-64v-64z" />
    <glyph glyph-name="v" unicode="v" 
d="M128 0v64h64v-64h-64zM192 64v64h64v-64h-64zM128 64h-64v64h64v-64zM256 128v64v64v64h64v-64v-64v-64h-64zM64 128h-64v64v64v64h64v-64v-64v-64z" />
    <glyph glyph-name="w" unicode="w" 
d="M192 0v64h64v-64h-64zM64 0v64h64v-64h-64zM256 64v64v64v64v64h64v-64v-64v-64v-64h-64zM192 64h-64v64v64v64h64v-64v-64v-64zM64 64h-64v64v64v64v64h64v-64v-64v-64v-64z" />
    <glyph glyph-name="x" unicode="x" 
d="M256 0v64h64v-64h-64zM0 0v64h64v-64h-64zM256 64h-64v64h64v-64zM64 64v64h64v-64h-64zM192 128h-64v64h64v-64zM192 192v64h64v-64h-64zM128 192h-64v64h64v-64zM256 256v64h64v-64h-64zM64 256h-64v64h64v-64z" />
    <glyph glyph-name="y" unicode="y" 
d="M0 0v64h64v-64h-64zM64 64v64h64v-64h-64zM128 128v64h64v-64h-64zM192 192v64h64v-64h-64zM128 192h-64v64h64v-64zM256 256v64h64v-64h-64zM64 256h-64v64h64v-64z" />
    <glyph glyph-name="z" unicode="z" 
d="M256 64h64v-64h-64h-64h-64h-64h-64v64h64v64h64v-64h64h64zM128 128v64h64v-64h-64zM192 192v64h-64h-64h-64v64h64h64h64h64h64v-64h-64v-64h-64z" />
    <glyph glyph-name="braceleft" unicode="{" 
d="M256 64h64v-64h-64h-64v64h64zM192 64h-64v64v64h64v-64v-64zM128 192h-64v64h64v-64zM128 256v64v64h64v-64v-64h-64zM256 448h64v-64h-64h-64v64h64z" />
    <glyph glyph-name="bar" unicode="|" 
d="M128 0v64v64v64v64v64v64h64v-64v-64v-64v-64v-64v-64h-64z" />
    <glyph glyph-name="braceright" unicode="}" 
d="M64 64h64v-64h-64h-64v64h64zM128 64v64v64h64v-64v-64h-64zM192 192v64h64v-64h-64zM192 256h-64v64v64h64v-64v-64zM128 384h-64h-64v64h64h64v-64z" />
    <glyph glyph-name="asciitilde" unicode="~" 
d="M0 128v64h64v-64h-64zM192 128h-64v64h-64v64h64h64v-64h64v-64h-64zM256 192v64h64v-64h-64z" />
    <glyph glyph-name="nonbreakingspace" unicode="&#xa0;" 
 />
    <glyph glyph-name="exclamdown" unicode="&#xa1;" 
d="M128 0v64v64v64v64h64v-64v-64v-64v-64h-64zM128 320v64h64v-64h-64z" />
    <glyph glyph-name="cent" unicode="&#xa2;" 
d="M128 0v64h-64v64h-64v64v64h64v64h64v64h64v-64h64h64v-64h-64h-64v-64v-64h64v-64h-64v-64h-64zM256 128v64h64v-64h-64zM128 128v64v64h-64v-64v-64h64z" />
    <glyph glyph-name="sterling" unicode="&#xa3;" 
d="M256 64h64v-64h-64h-64h-64h-64h-64v64h64v64v64h-64v64h64v64h64v-64h64h64v-64h-64h-64v-64v-64h64h64zM256 384h64v-64h-64h-64h-64v64h64h64z" />
    <glyph glyph-name="currency" unicode="&#xa4;" 
d="M256 0v64h64v-64h-64zM0 0v64h64v-64h-64zM256 64h-64h-64h-64v64v64v64v64h64h64h64v-64v-64v-64v-64zM192 128v64v64h-64v-64v-64h64zM256 320v64h64v-64h-64zM64 320h-64v64h64v-64z" />
    <glyph glyph-name="yen" unicode="&#xa5;" 
d="M128 0v64h-64v64h64v64h64v-64h64v-64h-64v-64h-64zM192 192v64h64v-64h-64zM128 192h-64v64h64v-64zM256 256v64v64h64v-64v-64h-64zM64 256h-64v64v64h64v-64v-64z" />
    <glyph glyph-name="brokenbar" unicode="&#xa6;" 
d="M128 0v64v64h64v-64v-64h-64zM128 256v64v64h64v-64v-64h-64z" />
    <glyph glyph-name="section" unicode="&#xa7;" 
d="M128 128v64h64v-64h-64zM192 64h64v-64h-64h-64h-64v64h64h64zM256 64v64v64h64v-64v-64h-64zM64 64h-64v64h64v-64zM256 192h-64v64h64v-64zM128 192h-64v64h64v-64zM192 256h-64v64h-64v-64h-64v64h64v64h64h64h64v-64h-64v-64z" />
    <glyph glyph-name="dieresis" unicode="&#xa8;" 
d="M192 320v64h64v-64h-64zM64 320v64h64v-64h-64z" />
    <glyph glyph-name="copyright" unicode="&#xa9;" 
d="M192 64h64v64h-64h-64v64v64h-64v-64v-64h64v-64h64zM192 0h-64h-64v64h-64v64v64v64v64h64v64h64h64h64v-64h-64h-64v-64h64h64v64h64v-64v-64v-64v-64h-64v-64h-64z" />
    <glyph glyph-name="ordfeminine" unicode="&#xaa;" 
d="M192 128h64v-64h-64h-64h-64v64h64h64zM192 192h-64v64h-64v64h64v64h64h64v-64v-64v-64h-64zM192 256v64h-64v-64h64z" />
    <glyph glyph-name="guillemotleft" unicode="&#xab;" 
d="M256 64v64h64v-64h-64zM64 64v64h64v-64h-64zM256 128h-64v64h64v-64zM64 128h-64v64h64v-64zM256 192v64h64v-64h-64zM64 192v64h64v-64h-64z" />
    <glyph glyph-name="logicalnot" unicode="&#xac;" 
d="M256 64v64v64h-64h-64h-64h-64v64h64h64h64h64h64v-64v-64v-64h-64z" />
    <glyph glyph-name="registered" unicode="&#xae;" 
d="M192 0h-64h-64v64h64v64h64v-64h64v-64h-64zM256 64v64h-64v64h64v64v64h64v-64v-64v-64v-64h-64zM64 64h-64v64v64v64v64h64v-64v-64v-64v-64zM192 192h-64v64h64v-64zM256 320h-64h-64h-64v64h64h64h64v-64z" />
    <glyph glyph-name="macron" unicode="&#xaf;" 
d="M256 384h64v-64h-64h-64h-64h-64h-64v64h64h64h64h64z" />
    <glyph glyph-name="degree" unicode="&#xb0;" 
d="M128 192v64h64v-64h-64zM192 256v64h64v-64h-64zM128 256h-64v64h64v-64zM192 320h-64v64h64v-64z" />
    <glyph glyph-name="plusminus" unicode="&#xb1;" 
d="M192 0h-64h-64v64h64v64v64h-64h-64v64h64h64v64v64h64v-64v-64h64h64v-64h-64h-64v-64v-64h64v-64h-64z" />
    <glyph glyph-name="twosuperior" unicode="&#xb2;" 
d="M192 192h-64h-64v64h64v64h-64v64h64h64v-64h64v-64v-64h-64z" />
    <glyph glyph-name="threesuperior" unicode="&#xb3;" 
d="M128 192h-64v64h64v64h-64v64h64h64v-64h64v-64h-64v-64h-64z" />
    <glyph glyph-name="acute" unicode="&#xb4;" 
d="M64 192v64h64v-64h-64zM128 256v64h64v-64h-64zM192 320v64h64v-64h-64z" />
    <glyph glyph-name="mu" unicode="&#xb5;" 
d="M0 0v64v64v64v64v64h64v-64v-64v-64h64h64v-64h-64h-64v-64h-64zM256 64v64h-64v64h64v64v64h64v-64v-64v-64v-64h-64z" />
    <glyph glyph-name="paragraph" unicode="&#xb6;" 
d="M256 0v64v64v64v64v64h-64v-64v-64v-64v-64v-64h-64v64v64h-64v64h-64v64v64h64v64h64h64h64h64v-64v-64v-64v-64v-64v-64h-64z" />
    <glyph glyph-name="periodcentered" unicode="&#xb7;" 
d="M128 128v64v64h64v-64v-64h-64z" />
    <glyph glyph-name="cedilla" unicode="&#xb8;" 
d="M128 0h-64v64h64v64h64v-64v-64h-64z" />
    <glyph glyph-name="onesuperior" unicode="&#xb9;" 
d="M128 192v64v64v64h64v-64v-64v-64h-64z" />
    <glyph glyph-name="ordmasculine" unicode="&#xba;" 
d="M128 192v64h64v-64h-64zM192 128h64v-64h-64h-64h-64v64h64h64zM192 256v64h64v-64h-64zM128 256h-64v64h64v-64zM192 320h-64v64h64v-64z" />
    <glyph glyph-name="guillemotright" unicode="&#xbb;" 
d="M192 64v64h64v-64h-64zM0 64v64h64v-64h-64zM256 128v64h64v-64h-64zM64 128v64h64v-64h-64zM256 192h-64v64h64v-64zM64 192h-64v64h64v-64z" />
    <glyph glyph-name="onequarter" unicode="&#xbc;" 
d="M256 0v64h-64h-64v64h-64v-64h-64v64h64v64h64v64h64v-64v-64h64v64h64v-64v-64v-64h-64zM0 256v64v64h64v-64v-64h-64zM192 256v64h64v-64h-64zM256 320v64h64v-64h-64z" />
    <glyph glyph-name="onehalf" unicode="&#xbd;" 
d="M0 64v64h64v-64h-64zM0 256v64v64h64v-64v-64h-64zM256 0h-64h-64v64h64v64h-64h-64v64h64v64h64v-64h64v-64h64v-64v-64h-64zM192 256v64h64v-64h-64zM256 320v64h64v-64h-64z" />
    <glyph glyph-name="threequarters" unicode="&#xbe;" 
d="M256 0v64h-64h-64v64h-64v-64h-64v64h64v64h-64v64h64v64h-64v64h64h64v-64h64h64v-64h-64v-64v-64h64v64h64v-64v-64v-64h-64zM256 320v64h64v-64h-64z" />
    <glyph glyph-name="questiondown" unicode="&#xbf;" 
d="M128 320v64h64v-64h-64zM192 64h64v-64h-64h-64h-64v64h64h64zM256 64v64h64v-64h-64zM64 64h-64v64h64v-64zM64 128v64h64v-64h-64zM128 192v64h64v-64h-64z" />
    <glyph glyph-name="Agrave" unicode="&#xc0;" 
d="M256 0v64v64h-64h-64h-64v-64v-64h-64v64v64v64v64v64h64v-64v-64h64h64h64v64v64h64v-64v-64v-64v-64v-64h-64zM128 448v64h64v-64h-64zM256 320h-64h-64h-64v64h64h64h64v-64zM128 512h-64v64h64v-64z" />
    <glyph glyph-name="Aacute" unicode="&#xc1;" 
d="M256 0v64v64h-64h-64h-64v-64v-64h-64v64v64v64v64v64h64v-64v-64h64h64h64v64v64h64v-64v-64v-64v-64v-64h-64zM128 448v64h64v-64h-64zM256 320h-64h-64h-64v64h64h64h64v-64zM192 512v64h64v-64h-64z" />
    <glyph glyph-name="Acircumflex" unicode="&#xc2;" 
d="M256 0v64v64h-64h-64h-64v-64v-64h-64v64v64v64v64v64h64v-64v-64h64h64h64v64v64h64v-64v-64v-64v-64v-64h-64zM192 448v64h64v-64h-64zM64 448v64h64v-64h-64zM256 320h-64h-64h-64v64h64h64h64v-64zM192 512h-64v64h64v-64z" />
    <glyph glyph-name="Atilde" unicode="&#xc3;" 
d="M256 0v64v64h-64h-64h-64v-64v-64h-64v64v64v64v64v64h64v-64v-64h64h64h64v64v64h64v-64v-64v-64v-64v-64h-64zM192 448v64h64v-64h-64zM64 448v64h64v-64h-64zM256 320h-64h-64h-64v64h64h64h64v-64zM256 512v64h64v-64h-64zM192 512h-64v64h64v-64z" />
    <glyph glyph-name="Adieresis" unicode="&#xc4;" 
d="M256 0v64v64h-64h-64h-64v-64v-64h-64v64v64v64v64v64h64v-64v-64h64h64h64v64v64h64v-64v-64v-64v-64v-64h-64zM192 448v64h64v-64h-64zM64 448v64h64v-64h-64zM256 320h-64h-64h-64v64h64h64h64v-64z" />
    <glyph glyph-name="Aring" unicode="&#xc5;" 
d="M256 0v64v64h-64h-64h-64v-64v-64h-64v64v64v64v64v64h64v-64v-64h64h64h64v64v64h64v-64v-64v-64v-64v-64h-64zM256 320h-64h-64h-64v64v64h64v-64h64v64h64v-64v-64zM192 448h-64v64h64v-64z" />
    <glyph glyph-name="AE" unicode="&#xc6;" 
d="M0 0v64v64v64v64v64h64v64h64h64h64h64v-64h-64h-64v-64h64v-64h-64v-64v-64h64h64v-64h-64h-64h-64v64v64h-64v-64v-64h-64zM128 192v64v64h-64v-64v-64h64z" />
    <glyph glyph-name="Ccedilla" unicode="&#xc7;" 
d="M256 256v64h64v-64h-64zM128 -128h-64v64h64v64h-64v64h64h64h64v-64h-64v-64v-64h-64zM256 64v64h64v-64h-64zM64 64h-64v64v64v64v64h64v-64v-64v-64v-64zM256 320h-64h-64h-64v64h64h64h64v-64z" />
    <glyph glyph-name="Egrave" unicode="&#xc8;" 
d="M128 448v64h64v-64h-64zM256 64h64v-64h-64h-64h-64h-64h-64v64v64v64v64v64v64h64h64h64h64h64v-64h-64h-64h-64h-64v-64h64h64h64v-64h-64h-64h-64v-64v-64h64h64h64zM128 512h-64v64h64v-64z" />
    <glyph glyph-name="Eacute" unicode="&#xc9;" 
d="M128 448v64h64v-64h-64zM256 64h64v-64h-64h-64h-64h-64h-64v64v64v64v64v64v64h64h64h64h64h64v-64h-64h-64h-64h-64v-64h64h64h64v-64h-64h-64h-64v-64v-64h64h64h64zM192 512v64h64v-64h-64z" />
    <glyph glyph-name="Ecircumflex" unicode="&#xca;" 
d="M192 448v64h64v-64h-64zM64 448v64h64v-64h-64zM256 64h64v-64h-64h-64h-64h-64h-64v64v64v64v64v64v64h64h64h64h64h64v-64h-64h-64h-64h-64v-64h64h64h64v-64h-64h-64h-64v-64v-64h64h64h64zM192 512h-64v64h64v-64z" />
    <glyph glyph-name="Edieresis" unicode="&#xcb;" 
d="M192 448v64h64v-64h-64zM64 448v64h64v-64h-64zM256 64h64v-64h-64h-64h-64h-64h-64v64v64v64v64v64v64h64h64h64h64h64v-64h-64h-64h-64h-64v-64h64h64h64v-64h-64h-64h-64v-64v-64h64h64h64z" />
    <glyph glyph-name="Igrave" unicode="&#xcc;" 
d="M128 448v64h64v-64h-64zM192 0h-64h-64v64h64v64v64v64v64h-64v64h64h64h64v-64h-64v-64v-64v-64v-64h64v-64h-64zM128 512h-64v64h64v-64z" />
    <glyph glyph-name="Iacute" unicode="&#xcd;" 
d="M128 448v64h64v-64h-64zM192 0h-64h-64v64h64v64v64v64v64h-64v64h64h64h64v-64h-64v-64v-64v-64v-64h64v-64h-64zM192 512v64h64v-64h-64z" />
    <glyph glyph-name="Icircumflex" unicode="&#xce;" 
d="M192 448v64h64v-64h-64zM64 448v64h64v-64h-64zM192 0h-64h-64v64h64v64v64v64v64h-64v64h64h64h64v-64h-64v-64v-64v-64v-64h64v-64h-64zM192 512h-64v64h64v-64z" />
    <glyph glyph-name="Idieresis" unicode="&#xcf;" 
d="M192 448v64h64v-64h-64zM64 448v64h64v-64h-64zM192 0h-64h-64v64h64v64v64v64v64h-64v64h64h64h64v-64h-64v-64v-64v-64v-64h64v-64h-64z" />
    <glyph glyph-name="Eth" unicode="&#xd0;" 
d="M192 64h64v64v64v64v64h-64h-64v-64h64v-64h-64v-64v-64h64zM192 0h-64h-64v64v64v64h-64v64h64v64v64h64h64h64v-64h64v-64v-64v-64v-64h-64v-64h-64z" />
    <glyph glyph-name="Ntilde" unicode="&#xd1;" 
d="M256 0v64v64h-64v64h64v64v64v64h64v-64v-64v-64v-64v-64v-64h-64zM0 0v64v64v64v64v64v64h64v-64h64v-64h64v-64h-64v64h-64v-64v-64v-64v-64h-64zM192 448v64h64v-64h-64zM64 448v64h64v-64h-64zM256 512v64h64v-64h-64zM192 512h-64v64h64v-64z" />
    <glyph glyph-name="Ograve" unicode="&#xd2;" 
d="M128 448v64h64v-64h-64zM192 64h64v-64h-64h-64h-64v64h64h64zM256 64v64v64v64v64h64v-64v-64v-64v-64h-64zM64 64h-64v64v64v64v64h64v-64v-64v-64v-64zM256 320h-64h-64h-64v64h64h64h64v-64zM128 512h-64v64h64v-64z" />
    <glyph glyph-name="Oacute" unicode="&#xd3;" 
d="M128 448v64h64v-64h-64zM192 64h64v-64h-64h-64h-64v64h64h64zM256 64v64v64v64v64h64v-64v-64v-64v-64h-64zM64 64h-64v64v64v64v64h64v-64v-64v-64v-64zM256 320h-64h-64h-64v64h64h64h64v-64zM192 512v64h64v-64h-64z" />
    <glyph glyph-name="Ocircumflex" unicode="&#xd4;" 
d="M192 448v64h64v-64h-64zM64 448v64h64v-64h-64zM192 64h64v-64h-64h-64h-64v64h64h64zM256 64v64v64v64v64h64v-64v-64v-64v-64h-64zM64 64h-64v64v64v64v64h64v-64v-64v-64v-64zM256 320h-64h-64h-64v64h64h64h64v-64zM192 512h-64v64h64v-64z" />
    <glyph glyph-name="Otilde" unicode="&#xd5;" 
d="M192 448v64h64v-64h-64zM64 448v64h64v-64h-64zM192 64h64v-64h-64h-64h-64v64h64h64zM256 64v64v64v64v64h64v-64v-64v-64v-64h-64zM64 64h-64v64v64v64v64h64v-64v-64v-64v-64zM256 320h-64h-64h-64v64h64h64h64v-64zM256 512v64h64v-64h-64zM192 512h-64v64h64v-64z
" />
    <glyph glyph-name="Odieresis" unicode="&#xd6;" 
d="M192 448v64h64v-64h-64zM64 448v64h64v-64h-64zM192 64h64v-64h-64h-64h-64v64h64h64zM256 64v64v64v64v64h64v-64v-64v-64v-64h-64zM64 64h-64v64v64v64v64h64v-64v-64v-64v-64zM256 320h-64h-64h-64v64h64h64h64v-64z" />
    <glyph glyph-name="multiply" unicode="&#xd7;" 
d="M256 0v64h64v-64h-64zM0 0v64h64v-64h-64zM256 64h-64v64h64v-64zM64 64v64h64v-64h-64zM192 128h-64v64h64v-64zM192 192v64h64v-64h-64zM128 192h-64v64h64v-64zM256 256v64h64v-64h-64zM64 256h-64v64h64v-64z" />
    <glyph glyph-name="Oslash" unicode="&#xd8;" 
d="M0 0v64h64v-64h-64zM192 64h64v-64h-64h-64v64h64zM256 64v64v64v64h64v-64v-64v-64h-64zM128 64h-64v64h64v-64zM128 128v64v64h64v-64v-64h-64zM64 128h-64v64v64v64h64v-64v-64v-64zM256 256h-64v64h64v-64zM256 320v64h64v-64h-64zM192 320h-64h-64v64h64h64v-64z
" />
    <glyph glyph-name="Ugrave" unicode="&#xd9;" 
d="M128 448v64h64v-64h-64zM192 64h64v-64h-64h-64h-64v64h64h64zM256 64v64v64v64v64v64h64v-64v-64v-64v-64v-64h-64zM64 64h-64v64v64v64v64v64h64v-64v-64v-64v-64v-64zM128 512h-64v64h64v-64z" />
    <glyph glyph-name="Uacute" unicode="&#xda;" 
d="M128 448v64h64v-64h-64zM192 64h64v-64h-64h-64h-64v64h64h64zM256 64v64v64v64v64v64h64v-64v-64v-64v-64v-64h-64zM64 64h-64v64v64v64v64v64h64v-64v-64v-64v-64v-64zM192 512v64h64v-64h-64z" />
    <glyph glyph-name="Ucircumflex" unicode="&#xdb;" 
d="M192 448v64h64v-64h-64zM64 448v64h64v-64h-64zM192 64h64v-64h-64h-64h-64v64h64h64zM256 64v64v64v64v64v64h64v-64v-64v-64v-64v-64h-64zM64 64h-64v64v64v64v64v64h64v-64v-64v-64v-64v-64zM192 512h-64v64h64v-64z" />
    <glyph glyph-name="Udieresis" unicode="&#xdc;" 
d="M192 448v64h64v-64h-64zM64 448v64h64v-64h-64zM192 64h64v-64h-64h-64h-64v64h64h64zM256 64v64v64v64v64v64h64v-64v-64v-64v-64v-64h-64zM64 64h-64v64v64v64v64v64h64v-64v-64v-64v-64v-64z" />
    <glyph glyph-name="Yacute" unicode="&#xdd;" 
d="M128 0v64v64v64h64v-64v-64v-64h-64zM128 448v64h64v-64h-64zM192 192v64h64v-64h-64zM128 192h-64v64h64v-64zM256 256v64v64h64v-64v-64h-64zM64 256h-64v64v64h64v-64v-64zM192 512v64h64v-64h-64z" />
    <glyph glyph-name="Thorn" unicode="&#xde;" 
d="M0 0v64v64v64v64v64v64h64v-64h64h64h64v-64h64v-64v-64h-64v64v64h-64h-64h-64v-64v-64h64h64h64v-64h-64h-64h-64v-64h-64z" />
    <glyph glyph-name="germandbls" unicode="&#xdf;" 
d="M0 0v64v64v64v64v64h64v-64v-64v-64v-64v-64h-64zM192 64h64v-64h-64h-64v64h64zM256 64v64v64h64v-64v-64h-64zM256 192h-64h-64v64h64h64v-64zM256 256v64h64v-64h-64zM256 320h-64h-64h-64v64h64h64h64v-64z" />
    <glyph glyph-name="agrave" unicode="&#xe0;" 
d="M128 384v64h64v-64h-64zM256 0h-64h-64h-64v64h-64v64h64v64h64h64h64v64h64v-64v-64v-64v-64h-64zM192 64h64v64h-64h-64h-64v-64h64h64zM256 256h-64h-64h-64v64h64h64h64v-64zM128 448h-64v64h64v-64z" />
    <glyph glyph-name="aacute" unicode="&#xe1;" 
d="M128 384v64h64v-64h-64zM256 0h-64h-64h-64v64h-64v64h64v64h64h64h64v64h64v-64v-64v-64v-64h-64zM192 64h64v64h-64h-64h-64v-64h64h64zM256 256h-64h-64h-64v64h64h64h64v-64zM192 448v64h64v-64h-64z" />
    <glyph glyph-name="acircumflex" unicode="&#xe2;" 
d="M192 384v64h64v-64h-64zM64 384v64h64v-64h-64zM256 0h-64h-64h-64v64h-64v64h64v64h64h64h64v64h64v-64v-64v-64v-64h-64zM192 64h64v64h-64h-64h-64v-64h64h64zM256 256h-64h-64h-64v64h64h64h64v-64zM192 448h-64v64h64v-64z" />
    <glyph glyph-name="atilde" unicode="&#xe3;" 
d="M192 384v64h64v-64h-64zM64 384v64h64v-64h-64zM256 0h-64h-64h-64v64h-64v64h64v64h64h64h64v64h64v-64v-64v-64v-64h-64zM192 64h64v64h-64h-64h-64v-64h64h64zM256 256h-64h-64h-64v64h64h64h64v-64zM256 448v64h64v-64h-64zM192 448h-64v64h64v-64z" />
    <glyph glyph-name="adieresis" unicode="&#xe4;" 
d="M192 384v64h64v-64h-64zM64 384v64h64v-64h-64zM256 0h-64h-64h-64v64h-64v64h64v64h64h64h64v64h64v-64v-64v-64v-64h-64zM192 64h64v64h-64h-64h-64v-64h64h64zM256 256h-64h-64h-64v64h64h64h64v-64z" />
    <glyph glyph-name="aring" unicode="&#xe5;" 
d="M256 0h-64h-64h-64v64h-64v64h64v64h64h64h64v64h64v-64v-64v-64v-64h-64zM192 64h64v64h-64h-64h-64v-64h64h64zM256 256h-64h-64h-64v64v64h64v-64h64v64h64v-64v-64zM192 384h-64v64h64v-64z" />
    <glyph glyph-name="ae" unicode="&#xe6;" 
d="M192 0h-64h-64v64h-64v64h64v64h64v64h64v-64h64v64h64v-64v-64h-64h-64v-64h64v-64h-64zM128 64v64h-64v-64h64zM256 256h-64v64h64v-64zM128 256h-64v64h64v-64z" />
    <glyph glyph-name="ccedilla" unicode="&#xe7;" 
d="M128 -128h-64v64h64v64h-64v64h64h64h64v-64h-64v-64v-64h-64zM256 64v64h64v-64h-64zM64 64h-64v64v64v64h64v-64v-64v-64zM192 320h64v-64h-64h-64h-64v64h64h64z" />
    <glyph glyph-name="egrave" unicode="&#xe8;" 
d="M128 384v64h64v-64h-64zM192 64h64v-64h-64h-64h-64v64h64h64zM64 64h-64v64v64v64h64v-64h64h64h64v64h64v-64v-64h-64h-64h-64h-64v-64zM256 256h-64h-64h-64v64h64h64h64v-64zM128 448h-64v64h64v-64z" />
    <glyph glyph-name="eacute" unicode="&#xe9;" 
d="M128 384v64h64v-64h-64zM192 64h64v-64h-64h-64h-64v64h64h64zM64 64h-64v64v64v64h64v-64h64h64h64v64h64v-64v-64h-64h-64h-64h-64v-64zM256 256h-64h-64h-64v64h64h64h64v-64zM192 448v64h64v-64h-64z" />
    <glyph glyph-name="ecircumflex" unicode="&#xea;" 
d="M192 384v64h64v-64h-64zM64 384v64h64v-64h-64zM192 64h64v-64h-64h-64h-64v64h64h64zM64 64h-64v64v64v64h64v-64h64h64h64v64h64v-64v-64h-64h-64h-64h-64v-64zM256 256h-64h-64h-64v64h64h64h64v-64zM192 448h-64v64h64v-64z" />
    <glyph glyph-name="edieresis" unicode="&#xeb;" 
d="M192 384v64h64v-64h-64zM64 384v64h64v-64h-64zM192 64h64v-64h-64h-64h-64v64h64h64zM64 64h-64v64v64v64h64v-64h64h64h64v64h64v-64v-64h-64h-64h-64h-64v-64zM256 256h-64h-64h-64v64h64h64h64v-64z" />
    <glyph glyph-name="igrave" unicode="&#xec;" 
d="M128 320v64h64v-64h-64zM192 0h-64h-64v64h64v64v64h-64v64h64h64v-64v-64v-64h64v-64h-64zM128 384h-64v64h64v-64z" />
    <glyph glyph-name="iacute" unicode="&#xed;" 
d="M128 320v64h64v-64h-64zM192 0h-64h-64v64h64v64v64h-64v64h64h64v-64v-64v-64h64v-64h-64zM192 384v64h64v-64h-64z" />
    <glyph glyph-name="icircumflex" unicode="&#xee;" 
d="M192 320v64h64v-64h-64zM64 320v64h64v-64h-64zM192 0h-64h-64v64h64v64v64h-64v64h64h64v-64v-64v-64h64v-64h-64zM192 384h-64v64h64v-64z" />
    <glyph glyph-name="idieresis" unicode="&#xef;" 
d="M192 320v64h64v-64h-64zM64 320v64h64v-64h-64zM192 0h-64h-64v64h64v64v64h-64v64h64h64v-64v-64v-64h64v-64h-64z" />
    <glyph glyph-name="eth" unicode="&#xf0;" 
d="M128 320v64h-64v64h64v64h64v-64h64v-64h64v-64v-64v-64v-64v-64v-64h-64h-64h-64v64h-64v64v64h64v64h64h64v64v64h-64v-64h-64zM192 64h64v64v64h-64h-64v-64v-64h64z" />
    <glyph glyph-name="ntilde" unicode="&#xf1;" 
d="M256 0v64v64v64v64h64v-64v-64v-64v-64h-64zM0 0v64v64v64v64v64h64v-64h64v-64h-64v-64v-64v-64h-64zM192 384v64h64v-64h-64zM64 384v64h64v-64h-64zM256 256h-64h-64v64h64h64v-64zM256 448v64h64v-64h-64zM192 448h-64v64h64v-64z" />
    <glyph glyph-name="ograve" unicode="&#xf2;" 
d="M128 384v64h64v-64h-64zM192 64h64v-64h-64h-64h-64v64h64h64zM256 64v64v64v64h64v-64v-64v-64h-64zM64 64h-64v64v64v64h64v-64v-64v-64zM256 256h-64h-64h-64v64h64h64h64v-64zM128 448h-64v64h64v-64z" />
    <glyph glyph-name="oacute" unicode="&#xf3;" 
d="M128 384v64h64v-64h-64zM192 64h64v-64h-64h-64h-64v64h64h64zM256 64v64v64v64h64v-64v-64v-64h-64zM64 64h-64v64v64v64h64v-64v-64v-64zM256 256h-64h-64h-64v64h64h64h64v-64zM192 448v64h64v-64h-64z" />
    <glyph glyph-name="ocircumflex" unicode="&#xf4;" 
d="M192 384v64h64v-64h-64zM64 384v64h64v-64h-64zM192 64h64v-64h-64h-64h-64v64h64h64zM256 64v64v64v64h64v-64v-64v-64h-64zM64 64h-64v64v64v64h64v-64v-64v-64zM256 256h-64h-64h-64v64h64h64h64v-64zM192 448h-64v64h64v-64z" />
    <glyph glyph-name="otilde" unicode="&#xf5;" 
d="M192 384v64h64v-64h-64zM64 384v64h64v-64h-64zM192 64h64v-64h-64h-64h-64v64h64h64zM256 64v64v64v64h64v-64v-64v-64h-64zM64 64h-64v64v64v64h64v-64v-64v-64zM256 256h-64h-64h-64v64h64h64h64v-64zM256 448v64h64v-64h-64zM192 448h-64v64h64v-64z" />
    <glyph glyph-name="odieresis" unicode="&#xf6;" 
d="M192 384v64h64v-64h-64zM64 384v64h64v-64h-64zM192 64h64v-64h-64h-64h-64v64h64h64zM256 64v64v64v64h64v-64v-64v-64h-64zM64 64h-64v64v64v64h64v-64v-64v-64zM256 256h-64h-64h-64v64h64h64h64v-64z" />
    <glyph glyph-name="divide" unicode="&#xf7;" 
d="M128 0v64h64v-64h-64zM128 256v64h64v-64h-64zM256 192h64v-64h-64h-64h-64h-64h-64v64h64h64h64h64z" />
    <glyph glyph-name="oslash" unicode="&#xf8;" 
d="M0 0v64h64v-64h-64zM192 64h64v-64h-64h-64v64h64zM256 64v64v64h64v-64v-64h-64zM128 64h-64v64h64v-64zM128 128v64h64v-64h-64zM64 128h-64v64v64h64v-64v-64zM256 192h-64v64h64v-64zM256 256v64h64v-64h-64zM192 256h-64h-64v64h64h64v-64z" />
    <glyph glyph-name="ugrave" unicode="&#xf9;" 
d="M256 0v64h-64v-64h-64h-64v64h64h64v64h64v64v64v64h64v-64v-64v-64v-64v-64h-64zM128 384v64h64v-64h-64zM64 64h-64v64v64v64v64h64v-64v-64v-64v-64zM128 448h-64v64h64v-64z" />
    <glyph glyph-name="uacute" unicode="&#xfa;" 
d="M256 0v64h-64v-64h-64h-64v64h64h64v64h64v64v64v64h64v-64v-64v-64v-64v-64h-64zM128 384v64h64v-64h-64zM64 64h-64v64v64v64v64h64v-64v-64v-64v-64zM192 448v64h64v-64h-64z" />
    <glyph glyph-name="ucircumflex" unicode="&#xfb;" 
d="M256 0v64h-64v-64h-64h-64v64h64h64v64h64v64v64v64h64v-64v-64v-64v-64v-64h-64zM192 384v64h64v-64h-64zM64 384v64h64v-64h-64zM64 64h-64v64v64v64v64h64v-64v-64v-64v-64zM192 448h-64v64h64v-64z" />
    <glyph glyph-name="udieresis" unicode="&#xfc;" 
d="M256 0v64h-64v-64h-64h-64v64h64h64v64h64v64v64v64h64v-64v-64v-64v-64v-64h-64zM192 384v64h64v-64h-64zM64 384v64h64v-64h-64zM64 64h-64v64v64v64v64h64v-64v-64v-64v-64z" />
    <glyph glyph-name="yacute" unicode="&#xfd;" 
d="M0 0v64h64v-64h-64zM128 384v64h64v-64h-64zM64 64v64h64v-64h-64zM128 128v64h64v-64h-64zM192 192v64h64v-64h-64zM128 192h-64v64h64v-64zM256 256v64h64v-64h-64zM64 256h-64v64h64v-64zM192 448v64h64v-64h-64z" />
    <glyph glyph-name="thorn" unicode="&#xfe;" 
d="M0 0v64v64v64v64v64v64h64v-64v-64h64v-64v-64h64h64v-64h-64h-64v64h-64v-64v-64h-64zM256 128v64v64h64v-64v-64h-64zM256 256h-64h-64v64h64h64v-64z" />
    <glyph glyph-name="ydieresis" unicode="&#xff;" 
d="M0 0v64h64v-64h-64zM192 384v64h64v-64h-64zM64 384v64h64v-64h-64zM64 64v64h64v-64h-64zM128 128v64h64v-64h-64zM192 192v64h64v-64h-64zM128 192h-64v64h64v-64zM256 256v64h64v-64h-64zM64 256h-64v64h64v-64z" />
    <glyph glyph-name="Amacron" unicode="&#x100;" 
d="M256 0v64v64h-64h-64h-64v-64v-64h-64v64v64v64v64v64h64v-64v-64h64h64h64v64v64h64v-64v-64v-64v-64v-64h-64zM256 320h-64h-64h-64v64h64h64h64v-64zM192 512h64v-64h-64h-64h-64v64h64h64z" />
    <glyph glyph-name="amacron" unicode="&#x101;" 
d="M256 0h-64h-64h-64v64h-64v64h64v64h64h64h64v64h64v-64v-64v-64v-64h-64zM192 64h64v64h-64h-64h-64v-64h64h64zM256 256h-64h-64h-64v64h64h64h64v-64zM192 448h64v-64h-64h-64h-64v64h64h64z" />
    <glyph glyph-name="Abreve" unicode="&#x102;" 
d="M256 0v64v64h-64h-64h-64v-64v-64h-64v64v64v64v64v64h64v-64v-64h64h64h64v64v64h64v-64v-64v-64v-64v-64h-64zM256 320h-64h-64h-64v64h64h64h64v-64zM192 512h64v-64h-64h-64h-64v64h64h64zM256 512v64h64v-64h-64zM64 512h-64v64h64v-64z" />
    <glyph glyph-name="abreve" unicode="&#x103;" 
d="M256 0h-64h-64h-64v64h-64v64h64v64h64h64h64v64h64v-64v-64v-64v-64h-64zM192 64h64v64h-64h-64h-64v-64h64h64zM256 256h-64h-64h-64v64h64h64h64v-64zM192 448h64v-64h-64h-64h-64v64h64h64zM256 448v64h64v-64h-64zM64 448h-64v64h64v-64z" />
    <glyph glyph-name="Aogonek" unicode="&#x104;" 
d="M0 0v64v64v64v64v64h64v-64v-64h64h64h64v64v64h64v-64v-64v-64v-64v-64h-64v-64h64v-64h-64h-64v64v64h64v64v64h-64h-64h-64v-64v-64h-64zM256 320h-64h-64h-64v64h64h64h64v-64z" />
    <glyph glyph-name="aogonek" unicode="&#x105;" 
d="M192 -128h-64v64v64h-64v64h-64v64h64v64h64h64h64v64h64v-64v-64v-64v-64h-64h-64v-64h64v-64h-64zM192 64h64v64h-64h-64h-64v-64h64h64zM256 256h-64h-64h-64v64h64h64h64v-64z" />
    <glyph glyph-name="Cacute" unicode="&#x106;" 
d="M256 256v64h64v-64h-64zM128 448v64h64v-64h-64zM192 64h64v-64h-64h-64h-64v64h64h64zM256 64v64h64v-64h-64zM64 64h-64v64v64v64v64h64v-64v-64v-64v-64zM256 320h-64h-64h-64v64h64h64h64v-64zM192 512v64h64v-64h-64z" />
    <glyph glyph-name="cacute" unicode="&#x107;" 
d="M128 384v64h64v-64h-64zM192 64h64v-64h-64h-64h-64v64h64h64zM256 64v64h64v-64h-64zM64 64h-64v64v64v64h64v-64v-64v-64zM192 320h64v-64h-64h-64h-64v64h64h64zM192 448v64h64v-64h-64z" />
    <glyph glyph-name="Ccircumflex" unicode="&#x108;" 
d="M256 256v64h64v-64h-64zM192 448v64h64v-64h-64zM64 448v64h64v-64h-64zM192 64h64v-64h-64h-64h-64v64h64h64zM256 64v64h64v-64h-64zM64 64h-64v64v64v64v64h64v-64v-64v-64v-64zM256 320h-64h-64h-64v64h64h64h64v-64zM192 512h-64v64h64v-64z" />
    <glyph glyph-name="ccircumflex" unicode="&#x109;" 
d="M192 384v64h64v-64h-64zM64 384v64h64v-64h-64zM192 64h64v-64h-64h-64h-64v64h64h64zM256 64v64h64v-64h-64zM64 64h-64v64v64v64h64v-64v-64v-64zM192 320h64v-64h-64h-64h-64v64h64h64zM192 448h-64v64h64v-64z" />
    <glyph glyph-name="Cdot" unicode="&#x10a;" 
d="M256 256v64h64v-64h-64zM128 448v64h64v-64h-64zM192 64h64v-64h-64h-64h-64v64h64h64zM256 64v64h64v-64h-64zM64 64h-64v64v64v64v64h64v-64v-64v-64v-64zM256 320h-64h-64h-64v64h64h64h64v-64z" />
    <glyph glyph-name="cdot" unicode="&#x10b;" 
d="M128 384v64h64v-64h-64zM192 64h64v-64h-64h-64h-64v64h64h64zM256 64v64h64v-64h-64zM64 64h-64v64v64v64h64v-64v-64v-64zM192 320h64v-64h-64h-64h-64v64h64h64z" />
    <glyph glyph-name="Ccaron" unicode="&#x10c;" 
d="M256 256v64h64v-64h-64zM128 448v64h64v-64h-64zM192 64h64v-64h-64h-64h-64v64h64h64zM256 64v64h64v-64h-64zM64 64h-64v64v64v64v64h64v-64v-64v-64v-64zM256 320h-64h-64h-64v64h64h64h64v-64zM192 512v64h64v-64h-64zM128 512h-64v64h64v-64z" />
    <glyph glyph-name="ccaron" unicode="&#x10d;" 
d="M128 384v64h64v-64h-64zM192 64h64v-64h-64h-64h-64v64h64h64zM256 64v64h64v-64h-64zM64 64h-64v64v64v64h64v-64v-64v-64zM192 320h64v-64h-64h-64h-64v64h64h64zM192 448v64h64v-64h-64zM128 448h-64v64h64v-64z" />
    <glyph glyph-name="Dcaron" unicode="&#x10e;" 
d="M128 448v64h64v-64h-64zM192 64h64v64v64v64v64h-64h-64h-64v-64v-64v-64v-64h64h64zM192 0h-64h-64h-64v64v64v64v64v64v64h64h64h64h64v-64h64v-64v-64v-64v-64h-64v-64h-64zM192 512v64h64v-64h-64zM128 512h-64v64h64v-64z" />
    <glyph glyph-name="dcaron" unicode="&#x10f;" 
d="M256 192v64v64v64h64v-64v-64v-64h-64zM128 0h-64v64h-64v64v64h64v64h64v64v64v64h64v-64v-64v-64v-64v-64v-64v-64h-64zM128 64v64v64h-64v-64v-64h64z" />
    <glyph glyph-name="Dcroat" unicode="&#x110;" 
d="M192 64h64v64v64v64v64h-64h-64v-64h64v-64h-64v-64v-64h64zM192 0h-64h-64v64v64v64h-64v64h64v64v64h64h64h64v-64h64v-64v-64v-64v-64h-64v-64h-64z" />
    <glyph glyph-name="dcroat" unicode="&#x111;" 
d="M192 0h-64h-64v64h-64v64v64h64v64h64h64v64h-64v64h64v64h64v-64h64v-64h-64v-64v-64v-64v-64v-64h-64zM128 64h64v64v64h-64h-64v-64v-64h64z" />
    <glyph glyph-name="Emacron" unicode="&#x112;" 
d="M256 64h64v-64h-64h-64h-64h-64h-64v64v64v64v64v64v64h64h64h64h64h64v-64h-64h-64h-64h-64v-64h64h64h64v-64h-64h-64h-64v-64v-64h64h64h64zM192 512h64v-64h-64h-64h-64v64h64h64z" />
    <glyph glyph-name="emacron" unicode="&#x113;" 
d="M192 64h64v-64h-64h-64h-64v64h64h64zM64 64h-64v64v64v64h64v-64h64h64h64v64h64v-64v-64h-64h-64h-64h-64v-64zM256 256h-64h-64h-64v64h64h64h64v-64zM192 448h64v-64h-64h-64h-64v64h64h64z" />
    <glyph glyph-name="Ebreve" unicode="&#x114;" 
d="M256 64h64v-64h-64h-64h-64h-64h-64v64v64v64v64v64v64h64h64h64h64h64v-64h-64h-64h-64h-64v-64h64h64h64v-64h-64h-64h-64v-64v-64h64h64h64zM192 512h64v-64h-64h-64h-64v64h64h64zM256 512v64h64v-64h-64zM64 512h-64v64h64v-64z" />
    <glyph glyph-name="ebreve" unicode="&#x115;" 
d="M192 64h64v-64h-64h-64h-64v64h64h64zM64 64h-64v64v64v64h64v-64h64h64h64v64h64v-64v-64h-64h-64h-64h-64v-64zM256 256h-64h-64h-64v64h64h64h64v-64zM192 448h64v-64h-64h-64h-64v64h64h64zM256 448v64h64v-64h-64zM64 448h-64v64h64v-64z" />
    <glyph glyph-name="Edot" unicode="&#x116;" 
d="M128 448v64h64v-64h-64zM256 64h64v-64h-64h-64h-64h-64h-64v64v64v64v64v64v64h64h64h64h64h64v-64h-64h-64h-64h-64v-64h64h64h64v-64h-64h-64h-64v-64v-64h64h64h64z" />
    <glyph glyph-name="edot" unicode="&#x117;" 
d="M128 384v64h64v-64h-64zM192 64h64v-64h-64h-64h-64v64h64h64zM64 64h-64v64v64v64h64v-64h64h64h64v64h64v-64v-64h-64h-64h-64h-64v-64zM256 256h-64h-64h-64v64h64h64h64v-64z" />
    <glyph glyph-name="Eogonek" unicode="&#x118;" 
d="M192 -128h-64v64v64h-64h-64v64v64v64v64v64v64h64h64h64h64h64v-64h-64h-64h-64h-64v-64h64h64h64v-64h-64h-64h-64v-64v-64h64h64h64h64v-64h-64h-64v-64h64v-64h-64z" />
    <glyph glyph-name="eogonek" unicode="&#x119;" 
d="M192 -128h-64v64v64h-64v64h64h64h64v-64h-64v-64h64v-64h-64zM64 64h-64v64v64v64h64v-64h64h64h64v64h64v-64v-64h-64h-64h-64h-64v-64zM256 256h-64h-64h-64v64h64h64h64v-64z" />
    <glyph glyph-name="Ecaron" unicode="&#x11a;" 
d="M128 448v64h64v-64h-64zM256 64h64v-64h-64h-64h-64h-64h-64v64v64v64v64v64v64h64h64h64h64h64v-64h-64h-64h-64h-64v-64h64h64h64v-64h-64h-64h-64v-64v-64h64h64h64zM192 512v64h64v-64h-64zM128 512h-64v64h64v-64z" />
    <glyph glyph-name="ecaron" unicode="&#x11b;" 
d="M128 384v64h64v-64h-64zM192 64h64v-64h-64h-64h-64v64h64h64zM64 64h-64v64v64v64h64v-64h64h64h64v64h64v-64v-64h-64h-64h-64h-64v-64zM256 256h-64h-64h-64v64h64h64h64v-64zM192 448v64h64v-64h-64zM128 448h-64v64h64v-64z" />
    <glyph glyph-name="Gcircumflex" unicode="&#x11c;" 
d="M256 256v64h64v-64h-64zM192 448v64h64v-64h-64zM64 448v64h64v-64h-64zM256 0h-64h-64h-64v64h64h64h64v64h-64v64h64h64v-64v-64v-64h-64zM64 64h-64v64v64v64v64h64v-64v-64v-64v-64zM256 320h-64h-64h-64v64h64h64h64v-64zM192 512h-64v64h64v-64z" />
    <glyph glyph-name="gcircumflex" unicode="&#x11d;" 
d="M192 384v64h64v-64h-64zM64 384v64h64v-64h-64zM192 64h64v-64h-64h-64h-64v64h64h64zM256 64v64h-64h-64h-64v64h-64v64h64v64h64h64h64h64v-64v-64v-64v-64h-64zM192 192h64v64h-64h-64h-64v-64h64h64zM192 448h-64v64h64v-64z" />
    <glyph glyph-name="Gbreve" unicode="&#x11e;" 
d="M256 256v64h64v-64h-64zM256 0h-64h-64h-64v64h64h64h64v64h-64v64h64h64v-64v-64v-64h-64zM64 64h-64v64v64v64v64h64v-64v-64v-64v-64zM256 320h-64h-64h-64v64h64h64h64v-64zM192 512h64v-64h-64h-64h-64v64h64h64zM256 512v64h64v-64h-64zM64 512h-64v64h64v-64z" />
    <glyph glyph-name="gbreve" unicode="&#x11f;" 
d="M192 64h64v-64h-64h-64h-64v64h64h64zM256 64v64h-64h-64h-64v64h-64v64h64v64h64h64h64h64v-64v-64v-64v-64h-64zM192 192h64v64h-64h-64h-64v-64h64h64zM192 448h64v-64h-64h-64h-64v64h64h64zM256 448v64h64v-64h-64zM64 448h-64v64h64v-64z" />
    <glyph glyph-name="Gdot" unicode="&#x120;" 
d="M256 256v64h64v-64h-64zM128 448v64h64v-64h-64zM256 0h-64h-64h-64v64h64h64h64v64h-64v64h64h64v-64v-64v-64h-64zM64 64h-64v64v64v64v64h64v-64v-64v-64v-64zM256 320h-64h-64h-64v64h64h64h64v-64z" />
    <glyph glyph-name="gdot" unicode="&#x121;" 
d="M128 384v64h64v-64h-64zM192 64h64v-64h-64h-64h-64v64h64h64zM256 64v64h-64h-64h-64v64h-64v64h64v64h64h64h64h64v-64v-64v-64v-64h-64zM192 192h64v64h-64h-64h-64v-64h64h64z" />
    <glyph glyph-name="Gcedilla" unicode="&#x122;" 
d="M256 256v64h64v-64h-64zM128 -128h-64v64h64v64h-64v64h64h64h64v64h-64v64h64h64v-64v-64v-64h-64h-64v-64v-64h-64zM64 64h-64v64v64v64v64h64v-64v-64v-64v-64zM256 320h-64h-64h-64v64h64h64h64v-64z" />
    <glyph glyph-name="gcedilla" unicode="&#x123;" 
d="M128 384v64v64h64h64v-64h-64v-64h-64zM192 64h64v-64h-64h-64h-64v64h64h64zM256 64v64h-64h-64h-64v64h-64v64h64v64h64h64h64h64v-64v-64v-64v-64h-64zM192 192h64v64h-64h-64h-64v-64h64h64z" />
    <glyph glyph-name="Hcircumflex" unicode="&#x124;" 
d="M256 0v64v64v64h-64h-64h-64v-64v-64v-64h-64v64v64v64v64v64v64h64v-64v-64h64h64h64v64v64h64v-64v-64v-64v-64v-64v-64h-64zM192 448v64h64v-64h-64zM64 448v64h64v-64h-64zM192 512h-64v64h64v-64z" />
    <glyph glyph-name="hcircumflex" unicode="&#x125;" 
d="M256 0v64v64v64h64v-64v-64v-64h-64zM0 0v64v64v64v64v64v64h64v-64v-64v-64h64v-64h-64v-64v-64h-64zM192 448v64h64v-64h-64zM64 448v64h64v-64h-64zM256 192h-64h-64v64h64h64v-64zM192 512h-64v64h64v-64z" />
    <glyph glyph-name="Hbar" unicode="&#x126;" 
d="M192 0v64v64h-64v-64v-64h-64v64v64v64v64h-64v64h64v64h64v-64h64v64h64v-64h64v-64h-64v-64v-64v-64v-64h-64zM192 192v64h-64v-64h64z" />
    <glyph glyph-name="hbar" unicode="&#x127;" 
d="M256 0v64v64h64v-64v-64h-64zM64 0v64v64v64v64h-64v64h64v64h64v-64h64v-64h-64v-64v-64h64v-64h-64v-64h-64zM256 128h-64v64h64v-64z" />
    <glyph glyph-name="Itilde" unicode="&#x128;" 
d="M192 448v64h64v-64h-64zM64 448v64h64v-64h-64zM192 0h-64h-64v64h64v64v64v64v64h-64v64h64h64h64v-64h-64v-64v-64v-64v-64h64v-64h-64zM256 512v64h64v-64h-64zM192 512h-64v64h64v-64z" />
    <glyph glyph-name="itilde" unicode="&#x129;" 
d="M192 320v64h64v-64h-64zM64 320v64h64v-64h-64zM192 0h-64h-64v64h64v64v64h-64v64h64h64v-64v-64v-64h64v-64h-64zM256 384v64h64v-64h-64zM192 384h-64v64h64v-64z" />
    <glyph glyph-name="Imacron" unicode="&#x12a;" 
d="M192 0h-64h-64v64h64v64v64v64v64h-64v64h64h64h64v-64h-64v-64v-64v-64v-64h64v-64h-64zM192 512h64v-64h-64h-64h-64v64h64h64z" />
    <glyph glyph-name="imacron" unicode="&#x12b;" 
d="M192 0h-64h-64v64h64v64v64h-64v64h64h64v-64v-64v-64h64v-64h-64zM192 384h64v-64h-64h-64h-64v64h64h64z" />
    <glyph glyph-name="Ibreve" unicode="&#x12c;" 
d="M192 0h-64h-64v64h64v64v64v64v64h-64v64h64h64h64v-64h-64v-64v-64v-64v-64h64v-64h-64zM192 512h64v-64h-64h-64h-64v64h64h64zM256 512v64h64v-64h-64zM64 512h-64v64h64v-64z" />
    <glyph glyph-name="ibreve" unicode="&#x12d;" 
d="M192 0h-64h-64v64h64v64v64h-64v64h64h64v-64v-64v-64h64v-64h-64zM192 384h64v-64h-64h-64v64h64zM256 384v64h64v-64h-64zM128 384h-64v64h64v-64z" />
    <glyph glyph-name="Iogonek" unicode="&#x12e;" 
d="M192 -128h-64v64v64h-64v64h64v64v64v64v64h-64v64h64h64h64v-64h-64v-64v-64v-64v-64h64v-64h-64v-64h64v-64h-64z" />
    <glyph glyph-name="iogonek" unicode="&#x12f;" 
d="M128 320v64h64v-64h-64zM192 -128h-64v64v64h-64v64h64v64v64h-64v64h64h64v-64v-64v-64h64v-64h-64v-64h64v-64h-64z" />
    <glyph glyph-name="Idotaccent" unicode="&#x130;" 
d="M128 448v64h64v-64h-64zM192 0h-64h-64v64h64v64v64v64v64h-64v64h64h64h64v-64h-64v-64v-64v-64v-64h64v-64h-64z" />
    <glyph glyph-name="dotlessi" unicode="&#x131;" 
d="M192 0h-64h-64v64h64v64v64h-64v64h64h64v-64v-64v-64h64v-64h-64z" />
    <glyph glyph-name="IJ" unicode="&#x132;" 
d="M192 64h64v-64h-64h-64h-64h-64v64h64v64v64v64v64h-64v64h64h64h64v-64h-64v-64v-64v-64v-64h64zM256 64v64v64v64v64v64h64v-64v-64v-64v-64v-64h-64z" />
    <glyph glyph-name="ij" unicode="&#x133;" 
d="M256 320v64h64v-64h-64zM64 320v64h64v-64h-64zM192 64h64v-64h-64h-64h-64h-64v64h64v64v64h-64v64h64h64v-64v-64v-64h64zM256 64v64v64h-64v64h64h64v-64v-64v-64h-64z" />
    <glyph glyph-name="Jcircumflex" unicode="&#x134;" 
d="M192 448v64h64v-64h-64zM64 448v64h64v-64h-64zM192 64h64v-64h-64h-64h-64v64h64h64zM256 64v64v64v64v64v64h64v-64v-64v-64v-64v-64h-64zM64 64h-64v64h64v-64zM192 512h-64v64h64v-64z" />
    <glyph glyph-name="jcircumflex" unicode="&#x135;" 
d="M128 0v64h64v-64h-64zM256 320v64h64v-64h-64zM128 320v64h64v-64h-64zM192 64v64v64h-64v64h64h64v-64v-64v-64h-64zM128 64h-64v64h64v-64zM256 384h-64v64h64v-64z" />
    <glyph glyph-name="Kcedilla" unicode="&#x136;" 
d="M0 0v64v64v64v64v64v64h64v-64v-64h64h64v-64h64v-64h64v-64v-64v-64v-64h-64h-64v64h64v64v64v64h-64v64h-64h-64v-64v-64v-64h-64zM192 256v64h64v-64h-64zM256 320v64h64v-64h-64z" />
    <glyph glyph-name="kcedilla" unicode="&#x137;" 
d="M0 0v64v64v64v64v64v64h64v-64v-64v-64h64v-64h64v-64h64v-64v-64v-64h-64h-64v64h64v64v64h-64v64h-64v-64v-64h-64zM128 192v64h64v-64h-64z" />
    <glyph glyph-name="kgreenlandic" unicode="&#x138;" 
d="M192 0v64h64v-64h-64zM0 0v64v64v64v64h64v-64h64v-64h64v-64h-64v64h-64v-64v-64h-64zM128 192v64h64v-64h-64z" />
    <glyph glyph-name="Lacute" unicode="&#x139;" 
d="M128 448v64h64v-64h-64zM256 64h64v-64h-64h-64h-64h-64h-64v64v64v64v64v64v64h64v-64v-64v-64v-64v-64h64h64h64zM192 512v64h64v-64h-64z" />
    <glyph glyph-name="lacute" unicode="&#x13a;" 
d="M128 448v64h64v-64h-64zM192 0h-64h-64v64h64v64v64v64v64h-64v64h64h64v-64v-64v-64v-64v-64h64v-64h-64zM192 512v64h64v-64h-64z" />
    <glyph glyph-name="Lcedilla" unicode="&#x13b;" 
d="M128 -128h-64v64h64v64h-64h-64v64v64v64v64v64v64h64v-64v-64v-64v-64v-64h64h64h64h64v-64h-64h-64v-64v-64h-64z" />
    <glyph glyph-name="lcedilla" unicode="&#x13c;" 
d="M128 -128h-64v64h64v64h-64v64h64v64v64v64v64h-64v64h64h64v-64v-64v-64v-64v-64h64v-64h-64v-64v-64h-64z" />
    <glyph glyph-name="Lcaron" unicode="&#x13d;" 
d="M256 192v64v64v64h64v-64v-64v-64h-64zM128 64h64v-64h-64h-64h-64v64v64v64v64v64v64h64v-64v-64v-64v-64v-64h64z" />
    <glyph glyph-name="lcaron" unicode="&#x13e;" 
d="M256 192v64v64v64h64v-64v-64v-64h-64zM128 0h-64h-64v64h64v64v64v64v64h-64v64h64h64v-64v-64v-64v-64v-64h64v-64h-64z" />
    <glyph glyph-name="Ldot" unicode="&#x13f;" 
d="M128 192v64h64v-64h-64zM256 64h64v-64h-64h-64h-64h-64h-64v64v64v64v64v64v64h64v-64v-64v-64v-64v-64h64h64h64z" />
    <glyph glyph-name="ldot" unicode="&#x140;" 
d="M256 192v64h64v-64h-64zM192 0h-64h-64v64h64v64v64v64v64h-64v64h64h64v-64v-64v-64v-64v-64h64v-64h-64z" />
    <glyph glyph-name="Lslash" unicode="&#x141;" 
d="M256 64h64v-64h-64h-64h-64h-64v64v64v64h-64v64h64v64v64h64v-64v-64h64v-64h-64v-64v-64h64h64z" />
    <glyph glyph-name="lslash" unicode="&#x142;" 
d="M192 0h-64h-64v64h64v64v64h-64v64h64v64h-64v64h64h64v-64v-64h64v-64h-64v-64v-64h64v-64h-64z" />
    <glyph glyph-name="Nacute" unicode="&#x143;" 
d="M256 0v64v64h-64v64h64v64v64v64h64v-64v-64v-64v-64v-64v-64h-64zM0 0v64v64v64v64v64v64h64v-64h64v-64h64v-64h-64v64h-64v-64v-64v-64v-64h-64zM128 448v64h64v-64h-64zM192 512v64h64v-64h-64z" />
    <glyph glyph-name="nacute" unicode="&#x144;" 
d="M256 0v64v64v64v64h64v-64v-64v-64v-64h-64zM0 0v64v64v64v64v64h64v-64h64v-64h-64v-64v-64v-64h-64zM128 384v64h64v-64h-64zM256 256h-64h-64v64h64h64v-64zM192 448v64h64v-64h-64z" />
    <glyph glyph-name="Ncedilla" unicode="&#x145;" 
d="M256 0v64v64h-64v64h64v64v64v64h64v-64v-64v-64v-64v-64v-64h-64zM0 0v64v64v64v64v64v64h64v-64h64v-64h64v-64h-64v64h-64v-64v-64v-64v-64h-64zM128 -128h-64v64h64v64h64v-64v-64h-64z" />
    <glyph glyph-name="ncedilla" unicode="&#x146;" 
d="M256 0v64v64v64v64h64v-64v-64v-64v-64h-64zM0 0v64v64v64v64v64h64v-64h64v-64h-64v-64v-64v-64h-64zM128 -128h-64v64h64v64h64v-64v-64h-64zM256 256h-64h-64v64h64h64v-64z" />
    <glyph glyph-name="Ncaron" unicode="&#x147;" 
d="M256 0v64v64h-64v64h64v64v64v64h64v-64v-64v-64v-64v-64v-64h-64zM0 0v64v64v64v64v64v64h64v-64h64v-64h64v-64h-64v64h-64v-64v-64v-64v-64h-64zM128 448v64h64v-64h-64zM192 512v64h64v-64h-64zM128 512h-64v64h64v-64z" />
    <glyph glyph-name="ncaron" unicode="&#x148;" 
d="M256 0v64v64v64v64h64v-64v-64v-64v-64h-64zM0 0v64v64v64v64v64h64v-64h64v-64h-64v-64v-64v-64h-64zM128 384v64h64v-64h-64zM256 256h-64h-64v64h64h64v-64zM192 448v64h64v-64h-64zM128 448h-64v64h64v-64z" />
    <glyph glyph-name="napostrophe" unicode="&#x149;" 
d="M256 0v64v64v64v64h64v-64v-64v-64v-64h-64zM128 0v64v64v64v64v64h64h64v-64h-64v-64v-64v-64v-64h-64zM0 192v64v64v64h64v-64v-64v-64h-64z" />
    <glyph glyph-name="Eng" unicode="&#x14a;" 
d="M0 0v64v64v64v64v64v64h64v-64h64v-64h-64v-64v-64v-64v-64h-64zM192 64h64v-64h-64h-64v64h64zM256 64v64v64v64v64h64v-64v-64v-64v-64h-64zM256 320h-64h-64v64h64h64v-64z" />
    <glyph glyph-name="eng" unicode="&#x14b;" 
d="M0 0v64v64v64v64v64h64v-64h64v-64h-64v-64v-64v-64h-64zM256 -128h-64v64h64v64v64v64v64v64h64v-64v-64v-64v-64v-64v-64h-64zM256 256h-64h-64v64h64h64v-64z" />
    <glyph glyph-name="Omacron" unicode="&#x14c;" 
d="M192 64h64v-64h-64h-64h-64v64h64h64zM256 64v64v64v64v64h64v-64v-64v-64v-64h-64zM64 64h-64v64v64v64v64h64v-64v-64v-64v-64zM256 320h-64h-64h-64v64h64h64h64v-64zM192 512h64v-64h-64h-64h-64v64h64h64z" />
    <glyph glyph-name="omacron" unicode="&#x14d;" 
d="M192 64h64v-64h-64h-64h-64v64h64h64zM256 64v64v64v64h64v-64v-64v-64h-64zM64 64h-64v64v64v64h64v-64v-64v-64zM256 256h-64h-64h-64v64h64h64h64v-64zM192 448h64v-64h-64h-64h-64v64h64h64z" />
    <glyph glyph-name="Obreve" unicode="&#x14e;" 
d="M192 64h64v-64h-64h-64h-64v64h64h64zM256 64v64v64v64v64h64v-64v-64v-64v-64h-64zM64 64h-64v64v64v64v64h64v-64v-64v-64v-64zM256 320h-64h-64h-64v64h64h64h64v-64zM192 512h64v-64h-64h-64h-64v64h64h64zM256 512v64h64v-64h-64zM64 512h-64v64h64v-64z" />
    <glyph glyph-name="obreve" unicode="&#x14f;" 
d="M192 64h64v-64h-64h-64h-64v64h64h64zM256 64v64v64v64h64v-64v-64v-64h-64zM64 64h-64v64v64v64h64v-64v-64v-64zM256 256h-64h-64h-64v64h64h64h64v-64zM192 448h64v-64h-64h-64h-64v64h64h64zM256 448v64h64v-64h-64zM64 448h-64v64h64v-64z" />
    <glyph glyph-name="Odblacute" unicode="&#x150;" 
d="M192 448v64h64v-64h-64zM0 448v64h64v-64h-64zM192 64h64v-64h-64h-64h-64v64h64h64zM256 64v64v64v64v64h64v-64v-64v-64v-64h-64zM64 64h-64v64v64v64v64h64v-64v-64v-64v-64zM256 320h-64h-64h-64v64h64h64h64v-64zM256 512v64h64v-64h-64zM64 512v64h64v-64h-64z" />
    <glyph glyph-name="odblacute" unicode="&#x151;" 
d="M192 384v64h64v-64h-64zM0 384v64h64v-64h-64zM192 64h64v-64h-64h-64h-64v64h64h64zM256 64v64v64v64h64v-64v-64v-64h-64zM64 64h-64v64v64v64h64v-64v-64v-64zM256 256h-64h-64h-64v64h64h64h64v-64zM256 448v64h64v-64h-64zM64 448v64h64v-64h-64z" />
    <glyph glyph-name="OE" unicode="&#x152;" 
d="M256 64h64v-64h-64h-64h-64h-64v64h-64v64v64v64v64h64v64h64h64h64h64v-64h-64h-64v-64h64v-64h-64v-64v-64h64zM128 64v64v64v64v64h-64v-64v-64v-64v-64h64z" />
    <glyph glyph-name="oe" unicode="&#x153;" 
d="M192 0h-64h-64v64h-64v64v64v64h64v64h64h64h64v-64h-64v-64h64v64h64v-64v-64h-64h-64v-64h64v-64h-64zM128 64v64v64v64h-64v-64v-64v-64h64z" />
    <glyph glyph-name="Racute" unicode="&#x154;" 
d="M256 0v64h64v-64h-64zM0 0v64v64v64v64v64v64h64h64h64h64v-64h64v-64v-64h-64v64v64h-64h-64h-64v-64v-64h64h64h64v-64v-64h-64v64h-64h-64v-64v-64h-64zM128 448v64h64v-64h-64zM192 512v64h64v-64h-64z" />
    <glyph glyph-name="racute" unicode="&#x155;" 
d="M0 0v64v64v64v64v64h64v-64h64v-64h-64v-64v-64v-64h-64zM256 192v64h64v-64h-64zM128 384v64h64v-64h-64zM256 256h-64h-64v64h64h64v-64zM192 448v64h64v-64h-64z" />
    <glyph glyph-name="Rcedilla" unicode="&#x156;" 
d="M256 0v64h64v-64h-64zM0 0v64v64v64v64v64v64h64h64h64h64v-64h64v-64v-64h-64v64v64h-64h-64h-64v-64v-64h64h64h64v-64v-64h-64v64h-64h-64v-64v-64h-64zM128 -128h-64v64h64v64h64v-64v-64h-64z" />
    <glyph glyph-name="rcedilla" unicode="&#x157;" 
d="M0 0v64v64v64v64v64h64v-64h64v-64h-64v-64v-64v-64h-64zM256 192v64h64v-64h-64zM128 -128h-64v64h64v64h64v-64v-64h-64zM256 256h-64h-64v64h64h64v-64z" />
    <glyph glyph-name="Rcaron" unicode="&#x158;" 
d="M256 0v64h64v-64h-64zM0 0v64v64v64v64v64v64h64h64h64h64v-64h64v-64v-64h-64v64v64h-64h-64h-64v-64v-64h64h64h64v-64v-64h-64v64h-64h-64v-64v-64h-64zM128 448v64h64v-64h-64zM192 512v64h64v-64h-64zM128 512h-64v64h64v-64z" />
    <glyph glyph-name="rcaron" unicode="&#x159;" 
d="M0 0v64v64v64v64v64h64v-64h64v-64h-64v-64v-64v-64h-64zM256 192v64h64v-64h-64zM128 384v64h64v-64h-64zM256 256h-64h-64v64h64h64v-64zM192 448v64h64v-64h-64zM128 448h-64v64h64v-64z" />
    <glyph glyph-name="Sacute" unicode="&#x15a;" 
d="M128 448v64h64v-64h-64zM192 64h64v-64h-64h-64h-64v64h64h64zM256 64v64v64h64v-64v-64h-64zM64 64h-64v64h64v-64zM256 192h-64h-64h-64v64h64h64h64v-64zM64 256h-64v64h64v-64zM192 384h64v-64h-64h-64h-64v64h64h64zM192 512v64h64v-64h-64z" />
    <glyph glyph-name="sacute" unicode="&#x15b;" 
d="M128 384v64h64v-64h-64zM192 64h64v-64h-64h-64h-64h-64v64h64h64h64zM256 64v64h64v-64h-64zM256 128h-64h-64h-64v64h64h64h64v-64zM64 192h-64v64h64v-64zM256 320h64v-64h-64h-64h-64h-64v64h64h64h64zM192 448v64h64v-64h-64z" />
    <glyph glyph-name="Scircumflex" unicode="&#x15c;" 
d="M192 448v64h64v-64h-64zM64 448v64h64v-64h-64zM192 64h64v-64h-64h-64h-64v64h64h64zM256 64v64v64h64v-64v-64h-64zM64 64h-64v64h64v-64zM256 192h-64h-64h-64v64h64h64h64v-64zM64 256h-64v64h64v-64zM192 384h64v-64h-64h-64h-64v64h64h64zM192 512h-64v64h64v-64z
" />
    <glyph glyph-name="scircumflex" unicode="&#x15d;" 
d="M192 384v64h64v-64h-64zM64 384v64h64v-64h-64zM192 64h64v-64h-64h-64h-64h-64v64h64h64h64zM256 64v64h64v-64h-64zM256 128h-64h-64h-64v64h64h64h64v-64zM64 192h-64v64h64v-64zM256 320h64v-64h-64h-64h-64h-64v64h64h64h64zM192 448h-64v64h64v-64z" />
    <glyph glyph-name="Scedilla" unicode="&#x15e;" 
d="M128 -128h-64v64h64v64h-64v64h64h64h64v-64h-64v-64v-64h-64zM256 64v64v64h64v-64v-64h-64zM64 64h-64v64h64v-64zM256 192h-64h-64h-64v64h64h64h64v-64zM64 256h-64v64h64v-64zM192 384h64v-64h-64h-64h-64v64h64h64z" />
    <glyph glyph-name="scedilla" unicode="&#x15f;" 
d="M128 -128h-64v64h64v64h-64h-64v64h64h64h64h64v-64h-64v-64v-64h-64zM256 64v64h64v-64h-64zM256 128h-64h-64h-64v64h64h64h64v-64zM64 192h-64v64h64v-64zM256 320h64v-64h-64h-64h-64h-64v64h64h64h64z" />
    <glyph glyph-name="Scaron" unicode="&#x160;" 
d="M128 448v64h64v-64h-64zM192 64h64v-64h-64h-64h-64v64h64h64zM256 64v64v64h64v-64v-64h-64zM64 64h-64v64h64v-64zM256 192h-64h-64h-64v64h64h64h64v-64zM64 256h-64v64h64v-64zM192 384h64v-64h-64h-64h-64v64h64h64zM192 512v64h64v-64h-64zM128 512h-64v64h64v-64z
" />
    <glyph glyph-name="scaron" unicode="&#x161;" 
d="M128 384v64h64v-64h-64zM192 64h64v-64h-64h-64h-64h-64v64h64h64h64zM256 64v64h64v-64h-64zM256 128h-64h-64h-64v64h64h64h64v-64zM64 192h-64v64h64v-64zM256 320h64v-64h-64h-64h-64h-64v64h64h64h64zM192 448v64h64v-64h-64zM128 448h-64v64h64v-64z" />
    <glyph glyph-name="Tcedilla" unicode="&#x162;" 
d="M128 -128h-64v64h64v64v64v64v64v64v64h-64h-64v64h64h64h64h64h64v-64h-64h-64v-64v-64v-64v-64v-64v-64v-64h-64z" />
    <glyph glyph-name="tcedilla" unicode="&#x163;" 
d="M128 -128h-64v64h64v64v64h64v-64v-64v-64h-64zM192 64v64h64v-64h-64zM128 64h-64v64v64v64h-64v64h64v64h64v-64h64v-64h-64v-64v-64v-64z" />
    <glyph glyph-name="Tcaron" unicode="&#x164;" 
d="M128 0v64v64v64v64v64h-64h-64v64h64h64h64h64h64v-64h-64h-64v-64v-64v-64v-64v-64h-64zM128 448v64h64v-64h-64zM192 512v64h64v-64h-64zM128 512h-64v64h64v-64z" />
    <glyph glyph-name="tcaron" unicode="&#x165;" 
d="M128 0v64h64v-64h-64zM256 192v64v64v64h64v-64v-64v-64h-64zM192 64v64h64v-64h-64zM128 64h-64v64v64v64h-64v64h64v64h64v-64h64v-64h-64v-64v-64v-64z" />
    <glyph glyph-name="Tbar" unicode="&#x166;" 
d="M128 0v64v64v64h-64v64h64v64h-64h-64v64h64h64h64h64h64v-64h-64h-64v-64h64v-64h-64v-64v-64v-64h-64z" />
    <glyph glyph-name="tbar" unicode="&#x167;" 
d="M128 0v64h64v-64h-64zM192 64v64h64v-64h-64zM128 64h-64v64h-64v64h64v64h-64v64h64v64h64v-64h64v-64h-64v-64h64v-64h-64v-64z" />
    <glyph glyph-name="Utilde" unicode="&#x168;" 
d="M192 448v64h64v-64h-64zM64 448v64h64v-64h-64zM192 64h64v-64h-64h-64h-64v64h64h64zM256 64v64v64v64v64v64h64v-64v-64v-64v-64v-64h-64zM64 64h-64v64v64v64v64v64h64v-64v-64v-64v-64v-64zM256 512v64h64v-64h-64zM192 512h-64v64h64v-64z" />
    <glyph glyph-name="utilde" unicode="&#x169;" 
d="M256 0v64h-64v-64h-64h-64v64h64h64v64h64v64v64v64h64v-64v-64v-64v-64v-64h-64zM192 384v64h64v-64h-64zM64 384v64h64v-64h-64zM64 64h-64v64v64v64v64h64v-64v-64v-64v-64zM256 448v64h64v-64h-64zM192 448h-64v64h64v-64z" />
    <glyph glyph-name="Umacron" unicode="&#x16a;" 
d="M192 64h64v-64h-64h-64h-64v64h64h64zM256 64v64v64v64v64v64h64v-64v-64v-64v-64v-64h-64zM64 64h-64v64v64v64v64v64h64v-64v-64v-64v-64v-64zM192 512h64v-64h-64h-64h-64v64h64h64z" />
    <glyph glyph-name="umacron" unicode="&#x16b;" 
d="M256 0v64h-64v-64h-64h-64v64h64h64v64h64v64v64v64h64v-64v-64v-64v-64v-64h-64zM64 64h-64v64v64v64v64h64v-64v-64v-64v-64zM192 448h64v-64h-64h-64h-64v64h64h64z" />
    <glyph glyph-name="Ubreve" unicode="&#x16c;" 
d="M192 64h64v-64h-64h-64h-64v64h64h64zM256 64v64v64v64v64v64h64v-64v-64v-64v-64v-64h-64zM64 64h-64v64v64v64v64v64h64v-64v-64v-64v-64v-64zM192 512h64v-64h-64h-64h-64v64h64h64zM256 512v64h64v-64h-64zM64 512h-64v64h64v-64z" />
    <glyph glyph-name="ubreve" unicode="&#x16d;" 
d="M256 0v64h-64v-64h-64h-64v64h64h64v64h64v64v64v64h64v-64v-64v-64v-64v-64h-64zM64 64h-64v64v64v64v64h64v-64v-64v-64v-64zM192 448h64v-64h-64h-64h-64v64h64h64zM256 448v64h64v-64h-64zM64 448h-64v64h64v-64z" />
    <glyph glyph-name="Uring" unicode="&#x16e;" 
d="M128 384v64h64v-64h-64zM192 64h64v-64h-64h-64h-64v64h64h64zM256 64v64v64v64v64v64h64v-64v-64v-64v-64v-64h-64zM64 64h-64v64v64v64v64v64h64v-64v-64v-64v-64v-64zM192 448v64h64v-64h-64zM128 448h-64v64h64v-64zM192 512h-64v64h64v-64z" />
    <glyph glyph-name="uring" unicode="&#x16f;" 
d="M256 0v64h-64v-64h-64h-64v64h64h64v64h64v64v64v64h64v-64v-64v-64v-64v-64h-64zM128 320v64h64v-64h-64zM64 64h-64v64v64v64v64h64v-64v-64v-64v-64zM192 384v64h64v-64h-64zM128 384h-64v64h64v-64zM192 448h-64v64h64v-64z" />
    <glyph glyph-name="Udblacute" unicode="&#x170;" 
d="M192 448v64h64v-64h-64zM0 448v64h64v-64h-64zM192 64h64v-64h-64h-64h-64v64h64h64zM256 64v64v64v64v64v64h64v-64v-64v-64v-64v-64h-64zM64 64h-64v64v64v64v64v64h64v-64v-64v-64v-64v-64zM256 512v64h64v-64h-64zM64 512v64h64v-64h-64z" />
    <glyph glyph-name="udblacute" unicode="&#x171;" 
d="M256 0v64h-64v-64h-64h-64v64h64h64v64h64v64v64v64h64v-64v-64v-64v-64v-64h-64zM192 384v64h64v-64h-64zM0 384v64h64v-64h-64zM64 64h-64v64v64v64v64h64v-64v-64v-64v-64zM256 448v64h64v-64h-64zM64 448v64h64v-64h-64z" />
    <glyph glyph-name="Uogonek" unicode="&#x172;" 
d="M192 -128h-64v64v64h-64v64h64h64h64v-64h-64v-64h64v-64h-64zM256 64v64v64v64v64v64h64v-64v-64v-64v-64v-64h-64zM64 64h-64v64v64v64v64v64h64v-64v-64v-64v-64v-64z" />
    <glyph glyph-name="uogonek" unicode="&#x173;" 
d="M256 -128h-64v64v64h64v-64h64v-64h-64zM256 0v64h-64v-64h-64h-64v64h64h64v64h64v64v64v64h64v-64v-64v-64v-64v-64h-64zM64 64h-64v64v64v64v64h64v-64v-64v-64v-64z" />
    <glyph glyph-name="Wcircumflex" unicode="&#x174;" 
d="M256 0v64h-64v64h64v64v64v64v64h64v-64v-64v-64v-64v-64v-64h-64zM0 0v64v64v64v64v64v64h64v-64v-64v-64v-64h64v-64h-64v-64h-64zM192 448v64h64v-64h-64zM64 448v64h64v-64h-64zM192 128h-64v64v64h64v-64v-64zM192 512h-64v64h64v-64z" />
    <glyph glyph-name="wcircumflex" unicode="&#x175;" 
d="M192 0v64h64v-64h-64zM64 0v64h64v-64h-64zM192 384v64h64v-64h-64zM64 384v64h64v-64h-64zM256 64v64v64v64v64h64v-64v-64v-64v-64h-64zM192 64h-64v64v64v64h64v-64v-64v-64zM64 64h-64v64v64v64v64h64v-64v-64v-64v-64zM192 448h-64v64h64v-64z" />
    <glyph glyph-name="Ycircumflex" unicode="&#x176;" 
d="M128 0v64v64v64h64v-64v-64v-64h-64zM192 448v64h64v-64h-64zM64 448v64h64v-64h-64zM192 192v64h64v-64h-64zM128 192h-64v64h64v-64zM256 256v64v64h64v-64v-64h-64zM64 256h-64v64v64h64v-64v-64zM192 512h-64v64h64v-64z" />
    <glyph glyph-name="ycircumflex" unicode="&#x177;" 
d="M0 0v64h64v-64h-64zM192 384v64h64v-64h-64zM64 384v64h64v-64h-64zM64 64v64h64v-64h-64zM128 128v64h64v-64h-64zM192 192v64h64v-64h-64zM128 192h-64v64h64v-64zM256 256v64h64v-64h-64zM64 256h-64v64h64v-64zM192 448h-64v64h64v-64z" />
    <glyph glyph-name="Ydieresis" unicode="&#x178;" 
d="M128 0v64v64v64h64v-64v-64v-64h-64zM192 448v64h64v-64h-64zM64 448v64h64v-64h-64zM192 192v64h64v-64h-64zM128 192h-64v64h64v-64zM256 256v64v64h64v-64v-64h-64zM64 256h-64v64v64h64v-64v-64z" />
    <glyph glyph-name="Zacute" unicode="&#x179;" 
d="M128 448v64h64v-64h-64zM256 64h64v-64h-64h-64h-64h-64h-64v64h64v64h64v-64h64h64zM128 128v64h64v-64h-64zM192 192v64h64v-64h-64zM256 256v64h-64h-64h-64h-64v64h64h64h64h64h64v-64v-64h-64zM192 512v64h64v-64h-64z" />
    <glyph glyph-name="zacute" unicode="&#x17a;" 
d="M128 384v64h64v-64h-64zM256 64h64v-64h-64h-64h-64h-64h-64v64h64v64h64v-64h64h64zM128 128v64h64v-64h-64zM192 192v64h-64h-64h-64v64h64h64h64h64h64v-64h-64v-64h-64zM192 448v64h64v-64h-64z" />
    <glyph glyph-name="Zdot" unicode="&#x17b;" 
d="M128 448v64h64v-64h-64zM256 64h64v-64h-64h-64h-64h-64h-64v64h64v64h64v-64h64h64zM128 128v64h64v-64h-64zM192 192v64h64v-64h-64zM256 256v64h-64h-64h-64h-64v64h64h64h64h64h64v-64v-64h-64z" />
    <glyph glyph-name="zdot" unicode="&#x17c;" 
d="M128 384v64h64v-64h-64zM256 64h64v-64h-64h-64h-64h-64h-64v64h64v64h64v-64h64h64zM128 128v64h64v-64h-64zM192 192v64h-64h-64h-64v64h64h64h64h64h64v-64h-64v-64h-64z" />
    <glyph glyph-name="Zcaron" unicode="&#x17d;" 
d="M128 448v64h64v-64h-64zM256 64h64v-64h-64h-64h-64h-64h-64v64h64v64h64v-64h64h64zM128 128v64h64v-64h-64zM192 192v64h64v-64h-64zM256 256v64h-64h-64h-64h-64v64h64h64h64h64h64v-64v-64h-64zM192 512v64h64v-64h-64zM128 512h-64v64h64v-64z" />
    <glyph glyph-name="zcaron" unicode="&#x17e;" 
d="M128 384v64h64v-64h-64zM256 64h64v-64h-64h-64h-64h-64h-64v64h64v64h64v-64h64h64zM128 128v64h64v-64h-64zM192 192v64h-64h-64h-64v64h64h64h64h64h64v-64h-64v-64h-64zM192 448v64h64v-64h-64zM128 448h-64v64h64v-64z" />
    <glyph glyph-name="longs" unicode="&#x17f;" 
d="M128 0v64v64v64v64v64h64v-64v-64v-64v-64v-64h-64zM256 384h64v-64h-64h-64v64h64z" />
    <glyph glyph-name="florin" unicode="&#x192;" 
d="M64 64h64v-64h-64h-64v64h64zM128 64v64v64h-64v64h64v64h64v-64h64v-64h-64v-64v-64h-64zM256 384h64v-64h-64h-64v64h64z" />
    <glyph glyph-name="Aringacute" unicode="&#x1fa;" 
d="M256 0v64v64h-64h-64h-64v-64v-64h-64v64v64v64v64v64h64v-64v-64h64h64h64v64v64h64v-64v-64v-64v-64v-64h-64zM256 320h-64h-64h-64v64v64h64v-64h64v64h64v-64v-64zM192 448h-64v64h64v-64zM192 512v64h64v-64h-64z" />
    <glyph glyph-name="aringacute" unicode="&#x1fb;" 
d="M256 0h-64h-64h-64v64h-64v64h64v64h64h64h64v64h64v-64v-64v-64v-64h-64zM192 64h64v64h-64h-64h-64v-64h64h64zM256 256h-64h-64h-64v64v64h64v-64h64v64h64v-64v-64zM192 384h-64v64h64v-64zM192 448v64h64v-64h-64z" />
    <glyph glyph-name="AEacute" unicode="&#x1fc;" 
d="M0 0v64v64v64v64v64h64v64h64h64h64h64v-64h-64h-64v-64h64v-64h-64v-64v-64h64h64v-64h-64h-64h-64v64v64h-64v-64v-64h-64zM128 448v64h64v-64h-64zM128 192v64v64h-64v-64v-64h64zM192 512v64h64v-64h-64z" />
    <glyph glyph-name="aeacute" unicode="&#x1fd;" 
d="M128 384v64h64v-64h-64zM192 0h-64h-64v64h-64v64h64v64h64v64h64v-64h64v64h64v-64v-64h-64h-64v-64h64v-64h-64zM128 64v64h-64v-64h64zM256 256h-64v64h64v-64zM128 256h-64v64h64v-64zM192 448v64h64v-64h-64z" />
    <glyph glyph-name="Oslashacute" unicode="&#x1fe;" 
d="M0 0v64h64v-64h-64zM128 448v64h64v-64h-64zM192 64h64v-64h-64h-64v64h64zM256 64v64v64v64h64v-64v-64v-64h-64zM128 64h-64v64h64v-64zM128 128v64v64h64v-64v-64h-64zM64 128h-64v64v64v64h64v-64v-64v-64zM256 256h-64v64h64v-64zM256 320v64h64v-64h-64zM192 320
h-64h-64v64h64h64v-64zM192 512v64h64v-64h-64z" />
    <glyph glyph-name="oslashacute" unicode="&#x1ff;" 
d="M0 0v64h64v-64h-64zM128 384v64h64v-64h-64zM192 64h64v-64h-64h-64v64h64zM256 64v64v64h64v-64v-64h-64zM128 64h-64v64h64v-64zM128 128v64h64v-64h-64zM64 128h-64v64v64h64v-64v-64zM256 192h-64v64h64v-64zM256 256v64h64v-64h-64zM192 256h-64h-64v64h64h64v-64z
M192 448v64h64v-64h-64z" />
    <glyph glyph-name="Scommaaccent" unicode="&#x218;" 
d="M128 -192v64v64h64v-64v-64h-64zM192 64h64v-64h-64h-64h-64v64h64h64zM256 64v64v64h64v-64v-64h-64zM64 64h-64v64h64v-64zM256 192h-64h-64h-64v64h64h64h64v-64zM64 256h-64v64h64v-64zM192 384h64v-64h-64h-64h-64v64h64h64z" />
    <glyph glyph-name="scommaaccent" unicode="&#x219;" 
d="M128 -192v64v64h64v-64v-64h-64zM192 64h64v-64h-64h-64h-64h-64v64h64h64h64zM256 64v64h64v-64h-64zM256 128h-64h-64h-64v64h64h64h64v-64zM64 192h-64v64h64v-64zM256 320h64v-64h-64h-64h-64h-64v64h64h64h64z" />
    <glyph glyph-name="Tcommabelow" unicode="&#x21a;" 
d="M128 -192v64v64h64v-64v-64h-64zM128 0v64v64v64v64v64h-64h-64v64h64h64h64h64h64v-64h-64h-64v-64v-64v-64v-64v-64h-64z" />
    <glyph glyph-name="tcommabelow" unicode="&#x21b;" 
d="M128 -192v64v64h64v-64v-64h-64zM128 0v64h64v-64h-64zM192 64v64h64v-64h-64zM128 64h-64v64v64v64h-64v64h64v64h64v-64h64v-64h-64v-64v-64v-64z" />
    <glyph glyph-name="circumflex" unicode="&#x2c6;" 
d="M256 192v64h64v-64h-64zM0 192v64h64v-64h-64zM256 256h-64v64h64v-64zM64 256v64h64v-64h-64zM192 320h-64v64h64v-64z" />
    <glyph glyph-name="caron" unicode="&#x2c7;" 
d="M128 192v64h64v-64h-64zM192 256v64h64v-64h-64zM128 256h-64v64h64v-64zM256 320v64h64v-64h-64zM64 320h-64v64h64v-64z" />
    <glyph glyph-name="firsttonechinese" unicode="&#x2c9;" 
d="M256 384h64v-64h-64h-64h-64h-64h-64v64h64h64h64h64z" />
    <glyph glyph-name="breve" unicode="&#x2d8;" 
d="M192 320h64v-64h-64h-64h-64v64h64h64zM256 320v64h64v-64h-64zM64 320h-64v64h64v-64z" />
    <glyph glyph-name="dotaccent" unicode="&#x2d9;" 
d="M128 320v64h64v-64h-64z" />
    <glyph glyph-name="ring" unicode="&#x2da;" 
d="M128 192v64h64v-64h-64zM192 256v64h64v-64h-64zM128 256h-64v64h64v-64zM192 320h-64v64h64v-64z" />
    <glyph glyph-name="ogonek" unicode="&#x2db;" 
d="M192 -128h-64v64v64h64v-64h64v-64h-64z" />
    <glyph glyph-name="tilde" unicode="&#x2dc;" 
d="M0 256v64h64v-64h-64zM192 256h-64v64h-64v64h64h64v-64h64v-64h-64zM256 320v64h64v-64h-64z" />
    <glyph glyph-name="hungarumlaut" unicode="&#x2dd;" 
d="M192 256v64h64v-64h-64zM0 256v64h64v-64h-64zM256 320v64h64v-64h-64zM64 320v64h64v-64h-64z" />
    <glyph glyph-name="gravecmb" unicode="&#x300;" 
d="M64 256v64h64v-64h-64zM64 320h-64v64h64v-64z" />
    <glyph glyph-name="acutecmb" unicode="&#x301;" 
d="M0 256v64h64v-64h-64zM64 320v64h64v-64h-64z" />
    <glyph glyph-name="circumflexcmb" unicode="&#x302;" 
d="M128 256v64h64v-64h-64zM0 256v64h64v-64h-64zM128 320h-64v64h64v-64z" />
    <glyph glyph-name="brevecmb" unicode="&#x306;" 
d="M128 320h64v-64h-64h-64v64h64zM192 320v64h64v-64h-64zM64 320h-64v64h64v-64z" />
    <glyph glyph-name="dieresiscmb" unicode="&#x308;" 
d="M128 320v64h64v-64h-64zM0 320v64h64v-64h-64z" />
    <glyph glyph-name="hungarumlautcmb" unicode="&#x30b;" 
d="M192 256v64h64v-64h-64zM0 256v64h64v-64h-64zM256 320v64h64v-64h-64zM64 320v64h64v-64h-64z" />
    <glyph glyph-name="caroncmb" unicode="&#x30c;" 
d="M64 256v64h64v-64h-64zM128 320v64h64v-64h-64zM64 320h-64v64h64v-64z" />
    <glyph glyph-name="uni0326" unicode="&#x326;" 
d="M128 0v64v64v64h64v-64v-64v-64h-64z" />
    <glyph glyph-name="questiongreek" unicode="&#x37e;" 
d="M128 0v64v64h64v-64v-64h-64zM128 256v64h64v-64h-64z" />
    <glyph glyph-name="tonos" unicode="&#x384;" 
d="M64 192v64h64v-64h-64zM128 256v64h64v-64h-64zM192 320v64h64v-64h-64z" />
    <glyph glyph-name="dialytikatonos" unicode="&#x385;" 
d="M192 192v64h64v-64h-64zM0 192v64h64v-64h-64zM192 256h-64v64h64v-64zM192 320v64h64v-64h-64z" />
    <glyph glyph-name="Alphatonos" unicode="&#x386;" 
d="M256 0v64v64h-64h-64h-64v-64v-64h-64v64v64v64v64v64h64v-64v-64h64h64h64v64v64h64v-64v-64v-64v-64v-64h-64zM256 320h-64h-64h-64v64h64h64h64v-64zM64 384h-64v64h64v-64zM64 448v64h64v-64h-64z" />
    <glyph glyph-name="anoteleia" unicode="&#x387;" 
d="M128 128v64v64h64v-64v-64h-64z" />
    <glyph glyph-name="Epsilontonos" unicode="&#x388;" 
d="M256 64h64v-64h-64h-64h-64h-64v64v64v64v64v64v64h64h64h64h64v-64h-64h-64h-64v-64h64h64v-64h-64h-64v-64v-64h64h64zM64 384h-64v64h64v-64zM64 448v64h64v-64h-64z" />
    <glyph glyph-name="Etatonos" unicode="&#x389;" 
d="M256 0v64v64v64h-64h-64v-64v-64v-64h-64v64v64v64v64v64v64h64v-64v-64h64h64v64v64h64v-64v-64v-64v-64v-64v-64h-64zM64 384h-64v64h64v-64zM64 448v64h64v-64h-64z" />
    <glyph glyph-name="Iotatonos" unicode="&#x38a;" 
d="M192 0h-64h-64v64h64v64v64v64v64h-64v64h64h64h64v-64h-64v-64v-64v-64v-64h64v-64h-64zM64 384h-64v64h64v-64zM64 448v64h64v-64h-64z" />
    <glyph glyph-name="Omicrontonos" unicode="&#x38c;" 
d="M192 64h64v-64h-64h-64h-64v64h64h64zM256 64v64v64v64v64h64v-64v-64v-64v-64h-64zM64 64h-64v64v64v64v64h64v-64v-64v-64v-64zM256 320h-64h-64h-64v64h64h64h64v-64zM64 384h-64v64h64v-64zM64 448v64h64v-64h-64z" />
    <glyph glyph-name="Upsilontonos" unicode="&#x38e;" 
d="M192 0v64v64v64v64h64v-64v-64v-64v-64h-64zM0 384v64h64v-64h-64zM256 256v64v64h64v-64v-64h-64zM192 256h-64v64v64h64v-64v-64zM64 448v64h64v-64h-64z" />
    <glyph glyph-name="Omegatonos" unicode="&#x38f;" 
d="M256 0h-64v64v64h64v-64h64v-64h-64zM64 0h-64v64h64v64h64v-64v-64h-64zM256 128v64v64v64h64v-64v-64v-64h-64zM64 128h-64v64v64v64h64v-64v-64v-64zM256 320h-64h-64h-64v64h64h64h64v-64zM64 384h-64v64h64v-64zM64 448v64h64v-64h-64z" />
    <glyph glyph-name="iotadieresistonos" unicode="&#x390;" 
d="M192 384v64h64v-64h-64zM0 384v64h64v-64h-64zM192 0h-64h-64v64h64v64v64v64h-64v64h64h64v-64v-64v-64v-64h64v-64h-64zM192 448h-64v64h64v-64zM192 512v64h64v-64h-64z" />
    <glyph glyph-name="Alpha" unicode="&#x391;" 
d="M256 0v64v64h-64h-64h-64v-64v-64h-64v64v64v64v64v64h64v-64v-64h64h64h64v64v64h64v-64v-64v-64v-64v-64h-64zM256 320h-64h-64h-64v64h64h64h64v-64z" />
    <glyph glyph-name="Beta" unicode="&#x392;" 
d="M192 64h64v64v64h-64h-64h-64v-64v-64h64h64zM192 0h-64h-64h-64v64v64v64v64v64v64h64h64h64h64v-64h64v-64h-64v64h-64h-64h-64v-64h64h64h64v-64h64v-64v-64h-64v-64h-64z" />
    <glyph glyph-name="Gamma" unicode="&#x393;" 
d="M0 0v64v64v64v64v64v64h64h64h64h64h64v-64h-64h-64h-64h-64v-64v-64v-64v-64v-64h-64z" />
    <glyph glyph-name="Deltagreek" unicode="&#x394;" 
d="M256 0h-64h-64h-64h-64v64v64h64v-64h64h64h64v64h64v-64v-64h-64zM256 128h-64v64v64h64v-64v-64zM64 128v64v64h64v-64v-64h-64zM192 256h-64v64v64h64v-64v-64z" />
    <glyph glyph-name="Epsilon" unicode="&#x395;" 
d="M256 64h64v-64h-64h-64h-64h-64h-64v64v64v64v64v64v64h64h64h64h64h64v-64h-64h-64h-64h-64v-64h64h64h64v-64h-64h-64h-64v-64v-64h64h64h64z" />
    <glyph glyph-name="Zeta" unicode="&#x396;" 
d="M256 64h64v-64h-64h-64h-64h-64h-64v64h64v64h64v-64h64h64zM128 128v64h64v-64h-64zM192 192v64h64v-64h-64zM256 256v64h-64h-64h-64h-64v64h64h64h64h64h64v-64v-64h-64z" />
    <glyph glyph-name="Eta" unicode="&#x397;" 
d="M256 0v64v64v64h-64h-64h-64v-64v-64v-64h-64v64v64v64v64v64v64h64v-64v-64h64h64h64v64v64h64v-64v-64v-64v-64v-64v-64h-64z" />
    <glyph glyph-name="Theta" unicode="&#x398;" 
d="M128 128v64v64h64v-64v-64h-64zM192 64h64v-64h-64h-64h-64v64h64h64zM256 64v64v64v64v64h64v-64v-64v-64v-64h-64zM64 64h-64v64v64v64v64h64v-64v-64v-64v-64zM256 320h-64h-64h-64v64h64h64h64v-64z" />
    <glyph glyph-name="Iota" unicode="&#x399;" 
d="M192 0h-64h-64v64h64v64v64v64v64h-64v64h64h64h64v-64h-64v-64v-64v-64v-64h64v-64h-64z" />
    <glyph glyph-name="Kappa" unicode="&#x39a;" 
d="M256 0v64v64h64v-64v-64h-64zM0 0v64v64v64v64v64v64h64v-64v-64h64h64v-64h64v-64h-64v64h-64h-64v-64v-64v-64h-64zM192 256v64h64v-64h-64zM256 320v64h64v-64h-64z" />
    <glyph glyph-name="Lambda" unicode="&#x39b;" 
d="M256 0v64v64h64v-64v-64h-64zM0 0v64v64h64v-64v-64h-64zM256 128h-64v64v64h64v-64v-64zM64 128v64v64h64v-64v-64h-64zM192 256h-64v64v64h64v-64v-64z" />
    <glyph glyph-name="Mu" unicode="&#x39c;" 
d="M256 0v64v64v64v64h-64v-64v-64h-64v64v64h64v64h64v64h64v-64v-64v-64v-64v-64v-64h-64zM0 0v64v64v64v64v64v64h64v-64h64v-64h-64v-64v-64v-64v-64h-64z" />
    <glyph glyph-name="Nu" unicode="&#x39d;" 
d="M256 0v64v64h-64v64h64v64v64v64h64v-64v-64v-64v-64v-64v-64h-64zM0 0v64v64v64v64v64v64h64v-64h64v-64h64v-64h-64v64h-64v-64v-64v-64v-64h-64z" />
    <glyph glyph-name="Xi" unicode="&#x39e;" 
d="M256 64h64v-64h-64h-64h-64h-64h-64v64h64h64h64h64zM192 256h64v-64h-64h-64h-64v64h64h64zM256 384h64v-64h-64h-64h-64h-64h-64v64h64h64h64h64z" />
    <glyph glyph-name="Omicron" unicode="&#x39f;" 
d="M192 64h64v-64h-64h-64h-64v64h64h64zM256 64v64v64v64v64h64v-64v-64v-64v-64h-64zM64 64h-64v64v64v64v64h64v-64v-64v-64v-64zM256 320h-64h-64h-64v64h64h64h64v-64z" />
    <glyph glyph-name="Pi" unicode="&#x3a0;" 
d="M256 0v64v64v64v64v64h-64h-64h-64v-64v-64v-64v-64v-64h-64v64v64v64v64v64v64h64h64h64h64h64v-64v-64v-64v-64v-64v-64h-64z" />
    <glyph glyph-name="Rho" unicode="&#x3a1;" 
d="M0 0v64v64v64v64v64v64h64h64h64h64v-64h64v-64v-64h-64v64v64h-64h-64h-64v-64v-64h64h64h64v-64h-64h-64h-64v-64v-64h-64z" />
    <glyph glyph-name="Sigma" unicode="&#x3a3;" 
d="M256 64h64v-64h-64h-64h-64h-64h-64v64v64h64v-64h64h64h64zM64 128v64h64v-64h-64zM128 192v64h64v-64h-64zM128 256h-64v64h-64v64h64h64h64h64h64v-64h-64h-64h-64v-64z" />
    <glyph glyph-name="Tau" unicode="&#x3a4;" 
d="M128 0v64v64v64v64v64h-64h-64v64h64h64h64h64h64v-64h-64h-64v-64v-64v-64v-64v-64h-64z" />
    <glyph glyph-name="Upsilon" unicode="&#x3a5;" 
d="M128 0v64v64v64h64v-64v-64v-64h-64zM192 192v64h64v-64h-64zM128 192h-64v64h64v-64zM256 256v64v64h64v-64v-64h-64zM64 256h-64v64v64h64v-64v-64z" />
    <glyph glyph-name="Phi" unicode="&#x3a6;" 
d="M128 0v64h-64v64h-64v64v64h64v64h64v64h64v-64h64v-64h64v-64v-64h-64v64v64h-64v-64v-64h64v-64h-64v-64h-64zM128 128v64v64h-64v-64v-64h64z" />
    <glyph glyph-name="Chi" unicode="&#x3a7;" 
d="M256 0v64v64h64v-64v-64h-64zM0 0v64v64h64v-64v-64h-64zM256 128h-64v64h64v-64zM64 128v64h64v-64h-64zM192 192h-64v64h64v-64zM192 256v64h64v-64h-64zM128 256h-64v64h64v-64zM256 320v64h64v-64h-64zM64 320h-64v64h64v-64z" />
    <glyph glyph-name="Psi" unicode="&#x3a8;" 
d="M128 0v64v64h-64v64h64v64v64v64h64v-64v-64v-64h64v-64h-64v-64v-64h-64zM256 192v64v64v64h64v-64v-64v-64h-64zM64 192h-64v64v64v64h64v-64v-64v-64z" />
    <glyph glyph-name="Omega" unicode="&#x3a9;" 
d="M256 0h-64v64v64h64v-64h64v-64h-64zM64 0h-64v64h64v64h64v-64v-64h-64zM256 128v64v64v64h64v-64v-64v-64h-64zM64 128h-64v64v64v64h64v-64v-64v-64zM256 320h-64h-64h-64v64h64h64h64v-64z" />
    <glyph glyph-name="Iotadieresis" unicode="&#x3aa;" 
d="M192 448v64h64v-64h-64zM64 448v64h64v-64h-64zM192 0h-64h-64v64h64v64v64v64v64h-64v64h64h64h64v-64h-64v-64v-64v-64v-64h64v-64h-64z" />
    <glyph glyph-name="Upsilondieresis" unicode="&#x3ab;" 
d="M128 0v64v64v64h64v-64v-64v-64h-64zM192 448v64h64v-64h-64zM64 448v64h64v-64h-64zM192 192v64h64v-64h-64zM128 192h-64v64h64v-64zM256 256v64v64h64v-64v-64h-64zM64 256h-64v64v64h64v-64v-64z" />
    <glyph glyph-name="alphatonos" unicode="&#x3ac;" 
d="M256 0v64h64v-64h-64zM128 384v64h64v-64h-64zM128 64h64v-64h-64h-64v64h64zM256 64h-64v64v64v64h64v-64v-64v-64zM64 64h-64v64v64v64h64v-64v-64v-64zM256 256v64h64v-64h-64zM192 256h-64h-64v64h64h64v-64zM192 448v64h64v-64h-64z" />
    <glyph glyph-name="epsilontonos" unicode="&#x3ad;" 
d="M128 384v64h64v-64h-64zM256 64h64v-64h-64h-64h-64h-64v64h64h64h64zM64 64h-64v64h64v-64zM192 192h64v-64h-64h-64h-64v64h64h64zM64 192h-64v64h64v-64zM256 320h64v-64h-64h-64h-64h-64v64h64h64h64zM192 448v64h64v-64h-64z" />
    <glyph glyph-name="etatonos" unicode="&#x3ae;" 
d="M256 0v64v64v64v64h64v-64v-64v-64v-64h-64zM0 64v64v64v64v64h64v-64h64v-64h-64v-64v-64h-64zM128 384v64h64v-64h-64zM256 256h-64h-64v64h64h64v-64zM192 448v64h64v-64h-64z" />
    <glyph glyph-name="iotatonos" unicode="&#x3af;" 
d="M128 384v64h64v-64h-64zM192 0h-64h-64v64h64v64v64v64h-64v64h64h64v-64v-64v-64v-64h64v-64h-64zM192 448v64h64v-64h-64z" />
    <glyph glyph-name="upsilondieresistonos" unicode="&#x3b0;" 
d="M256 384v64h64v-64h-64zM0 384v64h64v-64h-64zM128 448v64h64v-64h-64zM192 64h64v-64h-64h-64h-64v64h64h64zM256 64v64v64v64v64h64v-64v-64v-64v-64h-64zM64 64h-64v64v64v64v64h64v-64v-64v-64v-64zM192 512v64h64v-64h-64z" />
    <glyph glyph-name="alpha" unicode="&#x3b1;" 
d="M256 0v64h64v-64h-64zM128 64h64v-64h-64h-64v64h64zM256 64h-64v64v64v64h64v-64v-64v-64zM64 64h-64v64v64v64h64v-64v-64v-64zM256 256v64h64v-64h-64zM192 256h-64h-64v64h64h64v-64z" />
    <glyph glyph-name="beta" unicode="&#x3b2;" 
d="M0 0v64v64v64v64v64h64v-64v-64v-64v-64v-64h-64zM192 128h64v-64h-64h-64v64h64zM256 128v64h64v-64h-64zM256 192h-64h-64v64h64h64v-64zM256 256v64h64v-64h-64zM256 320h-64h-64h-64v64h64h64h64v-64z" />
    <glyph glyph-name="gamma" unicode="&#x3b3;" 
d="M128 0v64v64v64h64v-64v-64v-64h-64zM192 192v64h64v-64h-64zM128 192h-64v64h64v-64zM256 256v64h64v-64h-64zM64 256h-64v64h64v-64z" />
    <glyph glyph-name="delta" unicode="&#x3b4;" 
d="M192 64h64v-64h-64h-64h-64v64h64h64zM256 64v64v64h64v-64v-64h-64zM64 64h-64v64v64h64v-64v-64zM256 192h-64h-64h-64v64h64h64h64v-64zM64 256h-64v64v64h64h64h64h64v-64h-64h-64h-64v-64z" />
    <glyph glyph-name="epsilon" unicode="&#x3b5;" 
d="M256 64h64v-64h-64h-64h-64h-64v64h64h64h64zM64 64h-64v64h64v-64zM192 192h64v-64h-64h-64h-64v64h64h64zM64 192h-64v64h64v-64zM256 320h64v-64h-64h-64h-64h-64v64h64h64h64z" />
    <glyph glyph-name="zeta" unicode="&#x3b6;" 
d="M192 0v64h64v-64h-64zM256 64v64h64v-64h-64zM256 128h-64h-64h-64v64h64h64h64v-64zM64 192h-64v64h64v-64zM64 256v64h-64v64h64h64h64h64h64v-64h-64h-64h-64v-64h-64z" />
    <glyph glyph-name="eta" unicode="&#x3b7;" 
d="M256 0v64v64v64v64h64v-64v-64v-64v-64h-64zM0 64v64v64v64v64h64v-64h64v-64h-64v-64v-64h-64zM256 256h-64h-64v64h64h64v-64z" />
    <glyph glyph-name="theta" unicode="&#x3b8;" 
d="M192 64h64v-64h-64h-64h-64v64h64h64zM256 64v64v64h-64h-64h-64v-64v-64h-64v64v64v64v64h64v-64h64h64h64v64h64v-64v-64v-64v-64h-64zM256 320h-64h-64h-64v64h64h64h64v-64z" />
    <glyph glyph-name="iota" unicode="&#x3b9;" 
d="M192 0h-64h-64v64h64v64v64v64h-64v64h64h64v-64v-64v-64v-64h64v-64h-64z" />
    <glyph glyph-name="kappa" unicode="&#x3ba;" 
d="M256 0v64h64v-64h-64zM0 0v64v64v64v64v64h64v-64v-64v-64h64v-64h-64v-64h-64zM256 64h-64v64h64v-64zM192 128h-64v64h64v-64zM192 192v64h64v-64h-64zM256 256v64h64v-64h-64z" />
    <glyph glyph-name="lambda" unicode="&#x3bb;" 
d="M256 0v64v64h64v-64v-64h-64zM0 0v64v64h64v-64v-64h-64zM256 128h-64v64h64v-64zM64 128v64h64v-64h-64zM192 192h-64v64h64v-64zM128 256h-64v64h64v-64zM64 320h-64v64h64v-64z" />
    <glyph glyph-name="mugreek" unicode="&#x3bc;" 
d="M0 0v64v64v64v64v64h64v-64v-64v-64h64h64v-64h-64h-64v-64h-64zM256 64v64h-64v64h64v64v64h64v-64v-64v-64v-64h-64z" />
    <glyph glyph-name="nu" unicode="&#x3bd;" 
d="M128 0v64h64v-64h-64zM192 64v64v64h64v-64v-64h-64zM128 64h-64v64v64h64v-64v-64zM256 192v64v64h64v-64v-64h-64zM64 192h-64v64v64h64v-64v-64z" />
    <glyph glyph-name="xi" unicode="&#x3be;" 
d="M192 -64v64h64v-64h-64zM256 0v64h64v-64h-64zM256 64h-64h-64h-64v64h64h64h64v-64zM64 128h-64v64h64v-64zM192 256h64v-64h-64h-64h-64v64h64h64zM64 256h-64v64h64v-64zM256 384h64v-64h-64h-64h-64h-64v64h64h64h64z" />
    <glyph glyph-name="omicron" unicode="&#x3bf;" 
d="M192 64h64v-64h-64h-64h-64v64h64h64zM256 64v64v64v64h64v-64v-64v-64h-64zM64 64h-64v64v64v64h64v-64v-64v-64zM256 256h-64h-64h-64v64h64h64h64v-64z" />
    <glyph glyph-name="pi" unicode="&#x3c0;" 
d="M192 0v64v64v64v64h-64v-64v-64v-64v-64h-64v64v64v64v64h-64v64h64h64h64h64h64v-64h-64v-64v-64v-64v-64h-64z" />
    <glyph glyph-name="rho" unicode="&#x3c1;" 
d="M0 0v64v64v64v64h64v-64v-64h64h64h64v-64h-64h-64h-64v-64h-64zM256 128v64v64h64v-64v-64h-64zM256 256h-64h-64h-64v64h64h64h64v-64z" />
    <glyph glyph-name="sigma1" unicode="&#x3c2;" 
d="M192 -64v64h64v-64h-64zM256 0v64h64v-64h-64zM256 64h-64h-64h-64v64h64h64h64v-64zM64 128h-64v64v64h64v-64v-64zM192 320h64v-64h-64h-64h-64v64h64h64z" />
    <glyph glyph-name="sigma" unicode="&#x3c3;" 
d="M128 64h64v-64h-64h-64v64h64zM192 64v64v64v64h-64h-64v-64v-64v-64h-64v64v64v64h64v64h64h64h64h64v-64h-64v-64v-64v-64h-64z" />
    <glyph glyph-name="tau" unicode="&#x3c4;" 
d="M128 0v64v64v64v64h-64h-64v64h64h64h64h64h64v-64h-64h-64v-64v-64v-64v-64h-64z" />
    <glyph glyph-name="upsilon" unicode="&#x3c5;" 
d="M192 64h64v-64h-64h-64h-64v64h64h64zM256 64v64v64v64v64h64v-64v-64v-64v-64h-64zM64 64h-64v64v64v64v64h64v-64v-64v-64v-64z" />
    <glyph glyph-name="phi" unicode="&#x3c6;" 
d="M128 0v64h-64v64h64v64v64v64h64h64v-64h64v-64v-64h-64v64v64h-64v-64v-64h64v-64h-64v-64h-64zM64 128h-64v64v64v64h64v-64v-64v-64z" />
    <glyph glyph-name="chi" unicode="&#x3c7;" 
d="M256 -64v64v64h64v-64v-64h-64zM0 -64v64v64h64v-64v-64h-64zM256 64h-64v64h64v-64zM64 64v64h64v-64h-64zM192 128h-64v64h64v-64zM192 192v64h64v-64h-64zM128 192h-64v64h64v-64zM256 256v64h64v-64h-64zM64 256h-64v64h64v-64z" />
    <glyph glyph-name="psi" unicode="&#x3c8;" 
d="M128 0v64h-64v64h64v64v64v64h64v-64v-64v-64h64v-64h-64v-64h-64zM256 128v64v64v64h64v-64v-64v-64h-64zM64 128h-64v64v64v64h64v-64v-64v-64z" />
    <glyph glyph-name="omega" unicode="&#x3c9;" 
d="M192 0v64h64v-64h-64zM64 0v64h64v-64h-64zM256 64v64v64v64v64h64v-64v-64v-64v-64h-64zM192 64h-64v64v64v64h64v-64v-64v-64zM64 64h-64v64v64v64v64h64v-64v-64v-64v-64z" />
    <glyph glyph-name="iotadieresis" unicode="&#x3ca;" 
d="M192 384v64h64v-64h-64zM64 384v64h64v-64h-64zM192 0h-64h-64v64h64v64v64v64h-64v64h64h64v-64v-64v-64v-64h64v-64h-64z" />
    <glyph glyph-name="upsilondieresis" unicode="&#x3cb;" 
d="M192 384v64h64v-64h-64zM64 384v64h64v-64h-64zM192 64h64v-64h-64h-64h-64v64h64h64zM256 64v64v64v64v64h64v-64v-64v-64v-64h-64zM64 64h-64v64v64v64v64h64v-64v-64v-64v-64z" />
    <glyph glyph-name="omicrontonos" unicode="&#x3cc;" 
d="M128 384v64h64v-64h-64zM192 64h64v-64h-64h-64h-64v64h64h64zM256 64v64v64v64h64v-64v-64v-64h-64zM64 64h-64v64v64v64h64v-64v-64v-64zM256 256h-64h-64h-64v64h64h64h64v-64zM192 448v64h64v-64h-64z" />
    <glyph glyph-name="upsilontonos" unicode="&#x3cd;" 
d="M128 384v64h64v-64h-64zM192 64h64v-64h-64h-64h-64v64h64h64zM256 64v64v64v64v64h64v-64v-64v-64v-64h-64zM64 64h-64v64v64v64v64h64v-64v-64v-64v-64zM192 448v64h64v-64h-64z" />
    <glyph glyph-name="omegatonos" unicode="&#x3ce;" 
d="M192 0v64h64v-64h-64zM64 0v64h64v-64h-64zM128 384v64h64v-64h-64zM256 64v64v64v64v64h64v-64v-64v-64v-64h-64zM192 64h-64v64v64v64h64v-64v-64v-64zM64 64h-64v64v64v64v64h64v-64v-64v-64v-64zM192 448v64h64v-64h-64z" />
    <glyph glyph-name="afii10023" unicode="&#x401;" 
d="M192 448v64h64v-64h-64zM64 448v64h64v-64h-64zM256 64h64v-64h-64h-64h-64h-64h-64v64v64v64v64v64v64h64h64h64h64h64v-64h-64h-64h-64h-64v-64h64h64h64v-64h-64h-64h-64v-64v-64h64h64h64z" />
    <glyph glyph-name="afii10051" unicode="&#x402;" 
d="M192 0v64h64v-64h-64zM64 0v64v64v64v64v64h-64v64h64h64h64v-64h-64v-64h64h64v-64h64v-64v-64h-64v64v64h-64h-64v-64v-64v-64h-64z" />
    <glyph glyph-name="afii10052" unicode="&#x403;" 
d="M0 0v64v64v64v64v64v64h64h64h64h64h64v-64h-64h-64h-64h-64v-64v-64v-64v-64v-64h-64zM128 448v64h64v-64h-64zM192 512v64h64v-64h-64z" />
    <glyph glyph-name="afii10053" unicode="&#x404;" 
d="M256 64h64v-64h-64h-64h-64h-64v64h64h64h64zM64 64h-64v64v64v64v64h64v-64h64h64h64v-64h-64h-64h-64v-64v-64zM256 384h64v-64h-64h-64h-64h-64v64h64h64h64z" />
    <glyph glyph-name="afii10054" unicode="&#x405;" 
d="M192 64h64v-64h-64h-64h-64v64h64h64zM256 64v64v64h64v-64v-64h-64zM64 64h-64v64h64v-64zM256 192h-64h-64h-64v64h64h64h64v-64zM64 256h-64v64h64v-64zM192 384h64v-64h-64h-64h-64v64h64h64z" />
    <glyph glyph-name="afii10055" unicode="&#x406;" 
d="M192 0h-64h-64v64h64v64v64v64v64h-64v64h64h64h64v-64h-64v-64v-64v-64v-64h64v-64h-64z" />
    <glyph glyph-name="afii10056" unicode="&#x407;" 
d="M192 448v64h64v-64h-64zM64 448v64h64v-64h-64zM192 0h-64h-64v64h64v64v64v64v64h-64v64h64h64h64v-64h-64v-64v-64v-64v-64h64v-64h-64z" />
    <glyph glyph-name="afii10057" unicode="&#x408;" 
d="M192 64h64v-64h-64h-64h-64v64h64h64zM256 64v64v64v64v64v64h64v-64v-64v-64v-64v-64h-64zM64 64h-64v64h64v-64z" />
    <glyph glyph-name="afii10058" unicode="&#x409;" 
d="M0 0v64v64v64v64v64v64h64h64h64v-64v-64h64v-64h64v-64v-64h-64v64v64h-64v-64v-64h64v-64h-64h-64v64v64v64v64v64h-64v-64v-64v-64v-64v-64h-64z" />
    <glyph glyph-name="afii10059" unicode="&#x40a;" 
d="M0 0v64v64v64v64v64v64h64v-64v-64h64v64v64h64v-64v-64h64v-64h64v-64v-64h-64v64v64h-64v-64v-64h64v-64h-64h-64v64v64v64h-64v-64v-64v-64h-64z" />
    <glyph glyph-name="afii10060" unicode="&#x40b;" 
d="M256 0v64v64v64h64v-64v-64v-64h-64zM64 0v64v64v64v64v64h-64v64h64h64h64v-64h-64v-64h64h64v-64h-64h-64v-64v-64v-64h-64z" />
    <glyph glyph-name="afii10061" unicode="&#x40c;" 
d="M256 0v64v64h64v-64v-64h-64zM0 0v64v64v64v64v64v64h64v-64v-64h64h64v-64h64v-64h-64v64h-64h-64v-64v-64v-64h-64zM128 448v64h64v-64h-64zM192 256v64h64v-64h-64zM256 320v64h64v-64h-64zM192 512v64h64v-64h-64z" />
    <glyph glyph-name="afii10062" unicode="&#x40e;" 
d="M192 64h64v-64h-64h-64h-64v64h64h64zM256 64v64h-64h-64h-64v64h64h64h64v64v64v64h64v-64v-64v-64v-64v-64h-64zM64 192h-64v64v64v64h64v-64v-64v-64zM192 512h64v-64h-64h-64h-64v64h64h64zM256 512v64h64v-64h-64zM64 512h-64v64h64v-64z" />
    <glyph glyph-name="afii10145" unicode="&#x40f;" 
d="M128 0v64h-64h-64v64v64v64v64v64h64v-64v-64v-64v-64h64h64h64v64v64v64v64h64v-64v-64v-64v-64v-64h-64h-64v-64h-64z" />
    <glyph glyph-name="Acyrillic" unicode="&#x410;" 
d="M256 0v64v64h-64h-64h-64v-64v-64h-64v64v64v64v64v64h64v-64v-64h64h64h64v64v64h64v-64v-64v-64v-64v-64h-64zM256 320h-64h-64h-64v64h64h64h64v-64z" />
    <glyph glyph-name="afii10018" unicode="&#x411;" 
d="M192 64h64v64v64h-64h-64h-64v-64v-64h64h64zM192 0h-64h-64h-64v64v64v64v64v64v64h64h64h64h64v-64h-64h-64h-64v-64h64h64h64v-64h64v-64v-64h-64v-64h-64z" />
    <glyph glyph-name="afii10019" unicode="&#x412;" 
d="M192 64h64v64v64h-64h-64h-64v-64v-64h64h64zM192 0h-64h-64h-64v64v64v64v64v64v64h64h64h64h64v-64h64v-64h-64v64h-64h-64h-64v-64h64h64h64v-64h64v-64v-64h-64v-64h-64z" />
    <glyph glyph-name="afii10020" unicode="&#x413;" 
d="M0 0v64v64v64v64v64v64h64h64h64h64h64v-64h-64h-64h-64h-64v-64v-64v-64v-64v-64h-64z" />
    <glyph glyph-name="afii10021" unicode="&#x414;" 
d="M256 0v64h-64h-64h-64v-64h-64v64v64h64v64v64v64v64h64h64h64h64v-64v-64v-64v-64v-64v-64h-64zM192 128h64v64v64v64h-64h-64v-64v-64v-64h64z" />
    <glyph glyph-name="afii10022" unicode="&#x415;" 
d="M256 64h64v-64h-64h-64h-64h-64h-64v64v64v64v64v64v64h64h64h64h64h64v-64h-64h-64h-64h-64v-64h64h64h64v-64h-64h-64h-64v-64v-64h64h64h64z" />
    <glyph glyph-name="afii10024" unicode="&#x416;" 
d="M128 0v64v64h-64v-64h-64v64h64v64v64h64v64v64h64v-64v-64h64v-64v-64h64v-64h-64v64h-64v-64v-64h-64zM256 256v64h64v-64h-64zM64 256h-64v64h64v-64z" />
    <glyph glyph-name="afii10025" unicode="&#x417;" 
d="M0 256v64h64v-64h-64zM192 64h64v-64h-64h-64h-64v64h64h64zM256 64v64v64h64v-64v-64h-64zM64 64h-64v64h64v-64zM256 192h-64h-64v64h64h64v-64zM256 256v64h64v-64h-64zM256 320h-64h-64h-64v64h64h64h64v-64z" />
    <glyph glyph-name="afii10026" unicode="&#x418;" 
d="M256 0v64v64v64h-64v-64h-64v-64h-64v-64h-64v64v64v64v64v64v64h64v-64v-64v-64v-64h64v64h64v64h64v64v64h64v-64v-64v-64v-64v-64v-64h-64z" />
    <glyph glyph-name="afii10027" unicode="&#x419;" 
d="M256 0v64v64v64h-64v-64h-64v-64h-64v-64h-64v64v64v64v64v64v64h64v-64v-64v-64v-64h64v64h64v64h64v64v64h64v-64v-64v-64v-64v-64v-64h-64zM192 512h64v-64h-64h-64h-64v64h64h64zM256 512v64h64v-64h-64zM64 512h-64v64h64v-64z" />
    <glyph glyph-name="afii10028" unicode="&#x41a;" 
d="M256 0v64v64h64v-64v-64h-64zM0 0v64v64v64v64v64v64h64v-64v-64h64h64v-64h64v-64h-64v64h-64h-64v-64v-64v-64h-64zM192 256v64h64v-64h-64zM256 320v64h64v-64h-64z" />
    <glyph glyph-name="afii10029" unicode="&#x41b;" 
d="M256 0v64v64v64v64v64h-64h-64v-64v-64v-64v-64h-64v-64h-64v64h64v64v64v64v64v64h64h64h64h64v-64v-64v-64v-64v-64v-64h-64z" />
    <glyph glyph-name="afii10030" unicode="&#x41c;" 
d="M256 0v64v64v64v64h-64v-64v-64h-64v64v64h64v64h64v64h64v-64v-64v-64v-64v-64v-64h-64zM0 0v64v64v64v64v64v64h64v-64h64v-64h-64v-64v-64v-64v-64h-64z" />
    <glyph glyph-name="afii10031" unicode="&#x41d;" 
d="M256 0v64v64v64h-64h-64h-64v-64v-64v-64h-64v64v64v64v64v64v64h64v-64v-64h64h64h64v64v64h64v-64v-64v-64v-64v-64v-64h-64z" />
    <glyph glyph-name="afii10032" unicode="&#x41e;" 
d="M192 64h64v-64h-64h-64h-64v64h64h64zM256 64v64v64v64v64h64v-64v-64v-64v-64h-64zM64 64h-64v64v64v64v64h64v-64v-64v-64v-64zM256 320h-64h-64h-64v64h64h64h64v-64z" />
    <glyph glyph-name="afii10033" unicode="&#x41f;" 
d="M256 0v64v64v64v64v64h-64h-64h-64v-64v-64v-64v-64v-64h-64v64v64v64v64v64v64h64h64h64h64h64v-64v-64v-64v-64v-64v-64h-64z" />
    <glyph glyph-name="afii10034" unicode="&#x420;" 
d="M0 0v64v64v64v64v64v64h64h64h64h64v-64h64v-64v-64h-64v64v64h-64h-64h-64v-64v-64h64h64h64v-64h-64h-64h-64v-64v-64h-64z" />
    <glyph glyph-name="afii10035" unicode="&#x421;" 
d="M256 256v64h64v-64h-64zM192 64h64v-64h-64h-64h-64v64h64h64zM256 64v64h64v-64h-64zM64 64h-64v64v64v64v64h64v-64v-64v-64v-64zM256 320h-64h-64h-64v64h64h64h64v-64z" />
    <glyph glyph-name="afii10036" unicode="&#x422;" 
d="M128 0v64v64v64v64v64h-64h-64v64h64h64h64h64h64v-64h-64h-64v-64v-64v-64v-64v-64h-64z" />
    <glyph glyph-name="afii10037" unicode="&#x423;" 
d="M192 64h64v-64h-64h-64h-64v64h64h64zM256 64v64h-64h-64h-64v64h64h64h64v64v64v64h64v-64v-64v-64v-64v-64h-64zM64 192h-64v64v64v64h64v-64v-64v-64z" />
    <glyph glyph-name="afii10038" unicode="&#x424;" 
d="M128 0v64h-64v64h-64v64v64h64v64h64v64h64v-64h64v-64h64v-64v-64h-64v64v64h-64v-64v-64h64v-64h-64v-64h-64zM128 128v64v64h-64v-64v-64h64z" />
    <glyph glyph-name="afii10039" unicode="&#x425;" 
d="M256 0v64v64h64v-64v-64h-64zM0 0v64v64h64v-64v-64h-64zM256 128h-64v64h64v-64zM64 128v64h64v-64h-64zM192 192h-64v64h64v-64zM192 256v64h64v-64h-64zM128 256h-64v64h64v-64zM256 320v64h64v-64h-64zM64 320h-64v64h64v-64z" />
    <glyph glyph-name="afii10040" unicode="&#x426;" 
d="M256 0v64h-64h-64h-64h-64v64v64v64v64v64h64v-64v-64v-64v-64h64h64h64v64v64v64v64h64v-64v-64v-64v-64v-64v-64h-64z" />
    <glyph glyph-name="afii10041" unicode="&#x427;" 
d="M256 0v64v64h-64h-64h-64v64h64h64h64v64v64v64h64v-64v-64v-64v-64v-64v-64h-64zM64 192h-64v64v64v64h64v-64v-64v-64z" />
    <glyph glyph-name="afii10042" unicode="&#x428;" 
d="M256 0h-64h-64h-64h-64v64v64v64v64v64v64h64v-64v-64v-64v-64v-64h64v64v64v64v64v64h64v-64v-64v-64v-64v-64h64v64v64v64v64v64h64v-64v-64v-64v-64v-64v-64h-64z" />
    <glyph glyph-name="afii10043" unicode="&#x429;" 
d="M256 0v64h-64h-64h-64h-64v64v64v64v64v64h64v-64v-64v-64v-64h64v64v64v64v64h64v-64v-64v-64v-64h64v64v64v64v64h64v-64v-64v-64v-64v-64v-64h-64z" />
    <glyph glyph-name="afii10044" unicode="&#x42a;" 
d="M192 64h64v64v64h-64h-64v-64v-64h64zM192 0h-64h-64v64v64v64v64v64h-64v64h64h64v-64v-64h64h64v-64h64v-64v-64h-64v-64h-64z" />
    <glyph glyph-name="afii10045" unicode="&#x42b;" 
d="M256 0v64v64v64v64v64v64h64v-64v-64v-64v-64v-64v-64h-64zM64 0h-64v64v64v64v64v64v64h64v-64v-64h64v-64h64v-64v-64h-64v64v64h-64v-64v-64h64v-64h-64z" />
    <glyph glyph-name="afii10046" unicode="&#x42c;" 
d="M192 64h64v64v64h-64h-64h-64v-64v-64h64h64zM192 0h-64h-64h-64v64v64v64v64v64v64h64v-64v-64h64h64h64v-64h64v-64v-64h-64v-64h-64z" />
    <glyph glyph-name="afii10047" unicode="&#x42d;" 
d="M192 64h64v-64h-64h-64h-64h-64v64h64h64h64zM256 64v64v64h-64h-64h-64v64h64h64h64v64h64v-64v-64v-64v-64h-64zM256 320h-64h-64h-64h-64v64h64h64h64h64v-64z" />
    <glyph glyph-name="afii10048" unicode="&#x42e;" 
d="M192 0v64h64v-64h-64zM0 0v64v64v64v64v64v64h64v-64v-64h64v64h64v-64v-64v-64v-64h-64v64v64h-64v-64v-64v-64h-64zM256 64v64v64v64v64h64v-64v-64v-64v-64h-64zM256 320h-64v64h64v-64z" />
    <glyph glyph-name="afii10049" unicode="&#x42f;" 
d="M256 0v64v64h-64h-64v-64h-64v-64h-64v64h64v64v64h-64v64v64h64v64h64h64h64h64v-64v-64v-64v-64v-64v-64h-64zM192 192h64v64v64h-64h-64h-64v-64v-64h64h64z" />
    <glyph glyph-name="acyrillic" unicode="&#x430;" 
d="M256 0h-64h-64h-64v64h-64v64h64v64h64h64h64v64h64v-64v-64v-64v-64h-64zM192 64h64v64h-64h-64h-64v-64h64h64zM256 256h-64h-64h-64v64h64h64h64v-64z" />
    <glyph glyph-name="afii10066" unicode="&#x431;" 
d="M192 64h64v-64h-64h-64h-64v64h64h64zM256 64v64v64v64h64v-64v-64v-64h-64zM64 64h-64v64v64v64v64v64h64v-64h64h64h64v-64h-64h-64h-64v-64v-64v-64zM192 448h64v-64h-64h-64h-64v64h64h64z" />
    <glyph glyph-name="afii10067" unicode="&#x432;" 
d="M192 64h64v64h-64h-64h-64v-64h64h64zM192 0h-64h-64h-64v64v64v64v64v64h64h64h64h64v-64h64v-64h-64v64h-64h-64h-64v-64h64h64h64v-64h64v-64h-64v-64h-64z" />
    <glyph glyph-name="afii10068" unicode="&#x433;" 
d="M0 0v64v64v64v64v64h64h64h64h64h64v-64h-64h-64h-64h-64v-64v-64v-64v-64h-64z" />
    <glyph glyph-name="afii10069" unicode="&#x434;" 
d="M256 0v64h-64h-64h-64v-64h-64v64v64h64v64v64v64h64h64h64h64v-64v-64v-64v-64v-64h-64zM192 128h64v64v64h-64h-64v-64v-64h64z" />
    <glyph glyph-name="afii10070" unicode="&#x435;" 
d="M192 64h64v-64h-64h-64h-64v64h64h64zM64 64h-64v64v64v64h64v-64h64h64h64v64h64v-64v-64h-64h-64h-64h-64v-64zM256 256h-64h-64h-64v64h64h64h64v-64z" />
    <glyph glyph-name="afii10072" unicode="&#x436;" 
d="M128 0v64v64h-64v-64h-64v64h64v64h64v64v64h64v-64v-64h64v-64h64v-64h-64v64h-64v-64v-64h-64zM256 192v64h64v-64h-64zM64 192h-64v64h64v-64z" />
    <glyph glyph-name="afii10073" unicode="&#x437;" 
d="M192 64h64v-64h-64h-64h-64h-64v64h64h64h64zM256 64v64h64v-64h-64zM256 128h-64h-64h-64v64h64h64h64v-64zM256 192v64h64v-64h-64zM256 256h-64h-64h-64h-64v64h64h64h64h64v-64z" />
    <glyph glyph-name="afii10074" unicode="&#x438;" 
d="M256 0v64v64v64h-64v-64h-64v-64h-64v-64h-64v64v64v64v64v64h64v-64v-64v-64h64v64h64v64h64v64h64v-64v-64v-64v-64v-64h-64z" />
    <glyph glyph-name="afii10075" unicode="&#x439;" 
d="M256 0v64v64v64h-64v-64h-64v-64h-64v-64h-64v64v64v64v64v64h64v-64v-64v-64h64v64h64v64h64v64h64v-64v-64v-64v-64v-64h-64zM192 448h64v-64h-64h-64h-64v64h64h64zM256 448v64h64v-64h-64zM64 448h-64v64h64v-64z" />
    <glyph glyph-name="afii10076" unicode="&#x43a;" 
d="M256 0v64h64v-64h-64zM0 0v64v64v64v64v64h64v-64v-64h64h64v-64h64v-64h-64v64h-64h-64v-64v-64h-64zM192 192v64h64v-64h-64zM256 256v64h64v-64h-64z" />
    <glyph glyph-name="afii10077" unicode="&#x43b;" 
d="M256 0v64v64v64v64h-64h-64v-64v-64v-64v-64h-64h-64v64h64v64v64v64v64h64h64h64h64v-64v-64v-64v-64v-64h-64z" />
    <glyph glyph-name="afii10078" unicode="&#x43c;" 
d="M256 0v64v64v64h-64v-64h-64v64h64v64h64v64h64v-64v-64v-64v-64v-64h-64zM0 0v64v64v64v64v64h64v-64h64v-64h-64v-64v-64v-64h-64z" />
    <glyph glyph-name="afii10079" unicode="&#x43d;" 
d="M256 0v64v64h-64h-64h-64v-64v-64h-64v64v64v64v64v64h64v-64v-64h64h64h64v64v64h64v-64v-64v-64v-64v-64h-64z" />
    <glyph glyph-name="afii10080" unicode="&#x43e;" 
d="M192 64h64v-64h-64h-64h-64v64h64h64zM256 64v64v64v64h64v-64v-64v-64h-64zM64 64h-64v64v64v64h64v-64v-64v-64zM256 256h-64h-64h-64v64h64h64h64v-64z" />
    <glyph glyph-name="afii10081" unicode="&#x43f;" 
d="M256 0v64v64v64v64h-64h-64h-64v-64v-64v-64v-64h-64v64v64v64v64v64h64h64h64h64h64v-64v-64v-64v-64v-64h-64z" />
    <glyph glyph-name="afii10082" unicode="&#x440;" 
d="M0 -64v64v64v64v64v64v64h64h64h64v-64h64v-64v-64h-64v64v64h-64h-64v-64v-64h64h64v-64h-64h-64v-64v-64h-64z" />
    <glyph glyph-name="afii10083" unicode="&#x441;" 
d="M192 64h64v-64h-64h-64h-64v64h64h64zM256 64v64h64v-64h-64zM64 64h-64v64v64v64h64v-64v-64v-64zM192 320h64v-64h-64h-64h-64v64h64h64z" />
    <glyph glyph-name="afii10084" unicode="&#x442;" 
d="M128 0v64v64v64v64h-64h-64v64h64h64h64h64h64v-64h-64h-64v-64v-64v-64v-64h-64z" />
    <glyph glyph-name="afii10085" unicode="&#x443;" 
d="M0 0v64h64v-64h-64zM64 64v64h64v-64h-64zM128 128v64h64v-64h-64zM192 192v64h64v-64h-64zM128 192h-64v64h64v-64zM256 256v64h64v-64h-64zM64 256h-64v64h64v-64z" />
    <glyph glyph-name="afii10086" unicode="&#x444;" 
d="M128 0v64h-64v64h-64v64v64h64v64h64v64h64v-64h64v-64h64v-64v-64h-64v64v64h-64v-64v-64h64v-64h-64v-64h-64zM128 128v64v64h-64v-64v-64h64z" />
    <glyph glyph-name="afii10087" unicode="&#x445;" 
d="M256 0v64h64v-64h-64zM0 0v64h64v-64h-64zM256 64h-64v64h64v-64zM64 64v64h64v-64h-64zM192 128h-64v64h64v-64zM192 192v64h64v-64h-64zM128 192h-64v64h64v-64zM256 256v64h64v-64h-64zM64 256h-64v64h64v-64z" />
    <glyph glyph-name="afii10088" unicode="&#x446;" 
d="M256 0v64h-64h-64h-64h-64v64v64v64v64h64v-64v-64v-64h64h64h64v64v64v64h64v-64v-64v-64v-64v-64h-64z" />
    <glyph glyph-name="afii10089" unicode="&#x447;" 
d="M256 0v64v64h-64h-64h-64v64h64h64h64v64v64h64v-64v-64v-64v-64v-64h-64zM64 192h-64v64v64h64v-64v-64z" />
    <glyph glyph-name="afii10090" unicode="&#x448;" 
d="M256 0h-64h-64h-64h-64v64v64v64v64v64h64v-64v-64v-64v-64h64v64v64v64v64h64v-64v-64v-64v-64h64v64v64v64v64h64v-64v-64v-64v-64v-64h-64z" />
    <glyph glyph-name="afii10091" unicode="&#x449;" 
d="M256 0v64h-64h-64h-64h-64v64v64v64v64h64v-64v-64v-64h64v64v64v64h64v-64v-64v-64h64v64v64v64h64v-64v-64v-64v-64v-64h-64z" />
    <glyph glyph-name="afii10092" unicode="&#x44a;" 
d="M192 64h64v64h-64h-64v-64h64zM192 0h-64h-64v64v64v64v64h-64v64h64h64v-64v-64h64h64v-64h64v-64h-64v-64h-64z" />
    <glyph glyph-name="afii10093" unicode="&#x44b;" 
d="M256 0v64v64v64v64v64h64v-64v-64v-64v-64v-64h-64zM64 0h-64v64v64v64v64v64h64v-64v-64h64v-64h64v-64h-64v64h-64v-64h64v-64h-64z" />
    <glyph glyph-name="afii10094" unicode="&#x44c;" 
d="M192 64h64v64h-64h-64h-64v-64h64h64zM192 0h-64h-64h-64v64v64v64v64v64h64v-64v-64h64h64h64v-64h64v-64h-64v-64h-64z" />
    <glyph glyph-name="afii10095" unicode="&#x44d;" 
d="M192 64h64v-64h-64h-64h-64h-64v64h64h64h64zM256 64v64h-64h-64h-64v64h64h64h64v64h64v-64v-64v-64h-64zM256 256h-64h-64h-64h-64v64h64h64h64h64v-64z" />
    <glyph glyph-name="afii10096" unicode="&#x44e;" 
d="M192 0v64h64v-64h-64zM0 0v64v64v64v64v64h64v-64v-64h64v64h64v-64v-64v-64h-64v64h-64v-64v-64h-64zM256 64v64v64v64h64v-64v-64v-64h-64zM256 256h-64v64h64v-64z" />
    <glyph glyph-name="afii10097" unicode="&#x44f;" 
d="M256 0v64v64h-64h-64v-64h-64v-64h-64v64h64v64v64h-64v64h64v64h64h64h64h64v-64v-64v-64v-64v-64h-64zM192 192h64v64h-64h-64h-64v-64h64h64z" />
    <glyph glyph-name="afii10071" unicode="&#x451;" 
d="M192 384v64h64v-64h-64zM64 384v64h64v-64h-64zM192 64h64v-64h-64h-64h-64v64h64h64zM64 64h-64v64v64v64h64v-64h64h64h64v64h64v-64v-64h-64h-64h-64h-64v-64zM256 256h-64h-64h-64v64h64h64h64v-64z" />
    <glyph glyph-name="afii10099" unicode="&#x452;" 
d="M192 -128v64h64v-64h-64zM64 0v64v64v64v64h-64v64h64v64h64v-64h64v-64h-64v-64v-64h64v-64h-64v-64h-64zM256 -64v64v64v64h64v-64v-64v-64h-64zM256 128h-64v64h64v-64z" />
    <glyph glyph-name="afii10100" unicode="&#x453;" 
d="M0 0v64v64v64v64v64h64h64h64h64h64v-64h-64h-64h-64h-64v-64v-64v-64v-64h-64zM128 384v64h64v-64h-64zM192 448v64h64v-64h-64z" />
    <glyph glyph-name="afii10101" unicode="&#x454;" 
d="M256 64h64v-64h-64h-64h-64h-64v64h64h64h64zM64 64h-64v64v64v64h64v-64h64h64h64v-64h-64h-64h-64v-64zM256 320h64v-64h-64h-64h-64h-64v64h64h64h64z" />
    <glyph glyph-name="afii10102" unicode="&#x455;" 
d="M192 64h64v-64h-64h-64h-64h-64v64h64h64h64zM256 64v64h64v-64h-64zM256 128h-64h-64h-64v64h64h64h64v-64zM64 192h-64v64h64v-64zM256 320h64v-64h-64h-64h-64h-64v64h64h64h64z" />
    <glyph glyph-name="afii10103" unicode="&#x456;" 
d="M128 320v64h64v-64h-64zM192 0h-64h-64v64h64v64v64h-64v64h64h64v-64v-64v-64h64v-64h-64z" />
    <glyph glyph-name="afii10104" unicode="&#x457;" 
d="M192 320v64h64v-64h-64zM64 320v64h64v-64h-64zM192 0h-64h-64v64h64v64v64h-64v64h64h64v-64v-64v-64h64v-64h-64z" />
    <glyph glyph-name="afii10105" unicode="&#x458;" 
d="M128 0v64h64v-64h-64zM192 320v64h64v-64h-64zM192 64v64v64h-64v64h64h64v-64v-64v-64h-64zM128 64h-64v64h64v-64z" />
    <glyph glyph-name="afii10106" unicode="&#x459;" 
d="M0 0v64v64v64v64v64h64h64h64v-64v-64h64v-64h64v-64h-64v64h-64v-64h64v-64h-64h-64v64v64v64v64h-64v-64v-64v-64v-64h-64z" />
    <glyph glyph-name="afii10107" unicode="&#x45a;" 
d="M0 0v64v64v64v64v64h64v-64v-64h64v64v64h64v-64v-64h64v-64h64v-64h-64v64h-64v-64h64v-64h-64h-64v64v64h-64v-64v-64h-64z" />
    <glyph glyph-name="afii10108" unicode="&#x45b;" 
d="M256 0v64v64h64v-64v-64h-64zM64 0v64v64v64v64h-64v64h64v64h64v-64h64v-64h-64v-64v-64h64v-64h-64v-64h-64zM256 128h-64v64h64v-64z" />
    <glyph glyph-name="afii10109" unicode="&#x45c;" 
d="M256 0v64h64v-64h-64zM0 0v64v64v64v64v64h64v-64v-64h64h64v-64h64v-64h-64v64h-64h-64v-64v-64h-64zM128 384v64h64v-64h-64zM192 192v64h64v-64h-64zM256 256v64h64v-64h-64zM192 448v64h64v-64h-64z" />
    <glyph glyph-name="afii10110" unicode="&#x45e;" 
d="M0 0v64h64v-64h-64zM64 64v64h64v-64h-64zM128 128v64h64v-64h-64zM192 192v64h64v-64h-64zM128 192h-64v64h64v-64zM256 256v64h64v-64h-64zM64 256h-64v64h64v-64zM192 448h64v-64h-64h-64h-64v64h64h64zM256 448v64h64v-64h-64zM64 448h-64v64h64v-64z" />
    <glyph glyph-name="afii10193" unicode="&#x45f;" 
d="M128 0v64h-64h-64v64v64v64v64h64v-64v-64v-64h64h64h64v64v64v64h64v-64v-64v-64v-64h-64h-64v-64h-64z" />
    <glyph glyph-name="afii10050" unicode="&#x490;" 
d="M0 0v64v64v64v64v64v64h64h64h64h64v64h64v-64v-64h-64h-64h-64h-64v-64v-64v-64v-64v-64h-64z" />
    <glyph glyph-name="afii10098" unicode="&#x491;" 
d="M0 0v64v64v64v64v64h64h64h64h64v64h64v-64v-64h-64h-64h-64h-64v-64v-64v-64v-64h-64z" />
    <glyph glyph-name="Wgrave" unicode="&#x1e80;" 
d="M256 0v64h-64v64h64v64v64v64v64h64v-64v-64v-64v-64v-64v-64h-64zM0 0v64v64v64v64v64v64h64v-64v-64v-64v-64h64v-64h-64v-64h-64zM128 448v64h64v-64h-64zM192 128h-64v64v64h64v-64v-64zM128 512h-64v64h64v-64z" />
    <glyph glyph-name="wgrave" unicode="&#x1e81;" 
d="M192 0v64h64v-64h-64zM64 0v64h64v-64h-64zM128 384v64h64v-64h-64zM256 64v64v64v64v64h64v-64v-64v-64v-64h-64zM192 64h-64v64v64v64h64v-64v-64v-64zM64 64h-64v64v64v64v64h64v-64v-64v-64v-64zM128 448h-64v64h64v-64z" />
    <glyph glyph-name="Wacute" unicode="&#x1e82;" 
d="M256 0v64h-64v64h64v64v64v64v64h64v-64v-64v-64v-64v-64v-64h-64zM0 0v64v64v64v64v64v64h64v-64v-64v-64v-64h64v-64h-64v-64h-64zM128 448v64h64v-64h-64zM192 128h-64v64v64h64v-64v-64zM192 512v64h64v-64h-64z" />
    <glyph glyph-name="wacute" unicode="&#x1e83;" 
d="M192 0v64h64v-64h-64zM64 0v64h64v-64h-64zM128 384v64h64v-64h-64zM256 64v64v64v64v64h64v-64v-64v-64v-64h-64zM192 64h-64v64v64v64h64v-64v-64v-64zM64 64h-64v64v64v64v64h64v-64v-64v-64v-64zM192 448v64h64v-64h-64z" />
    <glyph glyph-name="Wdieresis" unicode="&#x1e84;" 
d="M256 0v64h-64v64h64v64v64v64v64h64v-64v-64v-64v-64v-64v-64h-64zM0 0v64v64v64v64v64v64h64v-64v-64v-64v-64h64v-64h-64v-64h-64zM192 448v64h64v-64h-64zM64 448v64h64v-64h-64zM192 128h-64v64v64h64v-64v-64z" />
    <glyph glyph-name="wdieresis" unicode="&#x1e85;" 
d="M192 0v64h64v-64h-64zM64 0v64h64v-64h-64zM192 384v64h64v-64h-64zM64 384v64h64v-64h-64zM256 64v64v64v64v64h64v-64v-64v-64v-64h-64zM192 64h-64v64v64v64h64v-64v-64v-64zM64 64h-64v64v64v64v64h64v-64v-64v-64v-64z" />
    <glyph glyph-name="Ygrave" unicode="&#x1ef2;" 
d="M128 0v64v64v64h64v-64v-64v-64h-64zM128 448v64h64v-64h-64zM192 192v64h64v-64h-64zM128 192h-64v64h64v-64zM256 256v64v64h64v-64v-64h-64zM64 256h-64v64v64h64v-64v-64zM128 512h-64v64h64v-64z" />
    <glyph glyph-name="ygrave" unicode="&#x1ef3;" 
d="M0 0v64h64v-64h-64zM128 384v64h64v-64h-64zM64 64v64h64v-64h-64zM128 128v64h64v-64h-64zM192 192v64h64v-64h-64zM128 192h-64v64h64v-64zM256 256v64h64v-64h-64zM64 256h-64v64h64v-64zM128 448h-64v64h64v-64z" />
    <glyph glyph-name="endash" unicode="&#x2013;" 
d="M256 192h64v-64h-64h-64h-64h-64h-64v64h64h64h64h64z" />
    <glyph glyph-name="emdash" unicode="&#x2014;" 
d="M320 192h64v-64h-64h-64h-64h-64h-64h-64v64h64h64h64h64h64z" />
    <glyph glyph-name="afii00208" unicode="&#x2015;" 
d="M320 192h64v-64h-64h-64h-64h-64h-64h-64v64h64h64h64h64h64z" />
    <glyph glyph-name="dbllowline" unicode="&#x2017;" 
d="M256 64h64v-64h-64h-64h-64h-64h-64v64h64h64h64h64zM256 192h64v-64h-64h-64h-64h-64h-64v64h64h64h64h64z" />
    <glyph glyph-name="quoteleft" unicode="&#x2018;" 
d="M128 256v64h64v-64h-64zM128 320h-64v64h64v-64z" />
    <glyph glyph-name="quoteright" unicode="&#x2019;" 
d="M128 256v64h64v-64h-64zM192 320v64h64v-64h-64z" />
    <glyph glyph-name="quotesinglbase" unicode="&#x201a;" 
d="M128 0v64v64h64v-64v-64h-64z" />
    <glyph glyph-name="quoteleftreversed" unicode="&#x201b;" 
d="M128 256v64h64v-64h-64zM128 320h-64v64h64v-64z" />
    <glyph glyph-name="quotedblleft" unicode="&#x201c;" 
d="M256 256v64h64v-64h-64zM64 256v64h64v-64h-64zM256 320h-64v64h64v-64zM64 320h-64v64h64v-64z" />
    <glyph glyph-name="quotedblright" unicode="&#x201d;" 
d="M192 256v64h64v-64h-64zM0 256v64h64v-64h-64zM256 320v64h64v-64h-64zM64 320v64h64v-64h-64z" />
    <glyph glyph-name="quotedblbase" unicode="&#x201e;" 
d="M192 0v64v64h64v-64v-64h-64zM64 0v64v64h64v-64v-64h-64z" />
    <glyph glyph-name="dagger" unicode="&#x2020;" 
d="M128 0v64v64v64v64h-64h-64v64h64h64v64h64v-64h64h64v-64h-64h-64v-64v-64v-64v-64h-64z" />
    <glyph glyph-name="daggerdbl" unicode="&#x2021;" 
d="M128 0v64h-64h-64v64h64h64v64v64h-64h-64v64h64h64v64h64v-64h64h64v-64h-64h-64v-64v-64h64h64v-64h-64h-64v-64h-64z" />
    <glyph glyph-name="bullet" unicode="&#x2022;" 
d="M192 64h-64h-64v64v64v64v64h64h64h64v-64v-64v-64v-64h-64z" />
    <glyph glyph-name="ellipsis" unicode="&#x2026;" 
d="M256 0v64h64v-64h-64zM128 0v64h64v-64h-64zM0 0v64h64v-64h-64z" />
    <glyph glyph-name="perthousand" unicode="&#x2030;" 
d="M256 0h-64h-64h-64h-64v64v64h64v64h-64v64v64v64h64h64h64v-64h64v-64h-64v-64h64h64v-64v-64v-64h-64zM256 64v64h-64v-64h64zM128 64v64h-64v-64h64zM128 256v64h-64v-64h64zM256 320v64h64v-64h-64z" />
    <glyph glyph-name="minute" unicode="&#x2032;" 
d="M128 256h-64v64h64v64h64h64v-64h-64v-64h-64z" />
    <glyph glyph-name="second" unicode="&#x2033;" 
d="M0 256v64h64v-64h-64zM192 256h-64v64h64v64h64h64v-64h-64v-64h-64zM128 320h-64v64h64v-64z" />
    <glyph glyph-name="guilsinglleft" unicode="&#x2039;" 
d="M128 64v64h64v-64h-64zM128 128h-64v64h64v-64zM128 192v64h64v-64h-64z" />
    <glyph glyph-name="guilsinglright" unicode="&#x203a;" 
d="M128 64v64h64v-64h-64zM192 128v64h64v-64h-64zM192 192h-64v64h64v-64z" />
    <glyph glyph-name="exclamdbl" unicode="&#x203c;" 
d="M192 0v64h64v-64h-64zM64 0v64h64v-64h-64zM192 128v64v64v64v64h64v-64v-64v-64v-64h-64zM64 128v64v64v64v64h64v-64v-64v-64v-64h-64z" />
    <glyph glyph-name="overline" unicode="&#x203e;" 
d="M256 384h64v-64h-64h-64h-64h-64h-64v64h64h64h64h64z" />
    <glyph glyph-name="fraction" unicode="&#x2044;" 
d="M0 64v64h64v-64h-64zM64 128v64h64v-64h-64zM128 192v64h64v-64h-64zM192 256v64h64v-64h-64zM256 320v64h64v-64h-64z" />
    <glyph glyph-name="foursuperior" unicode="&#x2074;" 
d="M192 192v64h-64h-64v64v64h64v-64h64v64h64v-64v-64v-64h-64z" />
    <glyph glyph-name="fivesuperior" unicode="&#x2075;" 
d="M128 128h-64v64h64v64v64h64h64v-64h-64v-64v-64h-64z" />
    <glyph glyph-name="sevensuperior" unicode="&#x2077;" 
d="M192 192v64v64h-64h-64v64h64h64h64v-64v-64v-64h-64z" />
    <glyph glyph-name="eightsuperior" unicode="&#x2078;" 
d="M192 128h-64h-64v64v64v64v64h64h64h64v-64v-64v-64v-64h-64zM192 256v64h-64v-64h64z" />
    <glyph glyph-name="nsuperior" unicode="&#x207f;" 
d="M192 192v64v64h-64v-64v-64h-64v64v64v64h64h64h64v-64v-64v-64h-64z" />
    <glyph glyph-name="franc" unicode="&#x20a3;" 
d="M64 0v64h-64v64h64v64v64v64v64h64h64h64h64v-64h-64h-64h-64v-64h64h64v-64h-64h-64v-64h64v-64h-64v-64h-64z" />
    <glyph glyph-name="afii08941" unicode="&#x20a4;" 
d="M256 320v64h64v-64h-64zM256 64h64v-64h-64h-64h-64h-64h-64v64h64v64h-64v64h64v64h-64v64h64v64h64v-64h64v-64h-64v-64h64v-64h-64v-64h64h64zM256 384h-64h-64v64h64h64v-64z" />
    <glyph glyph-name="peseta" unicode="&#x20a7;" 
d="M192 0v64v64h-64v64h64v64h64v-64h64v-64h-64v-64v-64h-64zM0 0v64v64v64v64v64v64h64h64v-64h64v-64h-64v64h-64v-64h64v-64h-64v-64v-64v-64h-64z" />
    <glyph glyph-name="Euro" unicode="&#x20ac;" 
d="M256 256v64h64v-64h-64zM192 64h64v-64h-64h-64v64h64zM256 64v64h64v-64h-64zM128 64h-64v64v64h-64v64h64v64h64v-64h64v-64h-64v-64v-64zM256 320h-64h-64v64h64h64v-64z" />
    <glyph glyph-name="afii61248" unicode="&#x2105;" 
d="M0 64v64h64v-64h-64zM256 0h-64h-64v64v64h-64v64h-64v64v64v64h64h64h64v-64h64v-64h-64v64h-64h-64v-64h64h64v-64h64h64v-64v-64v-64h-64zM256 64v64h-64v-64h64zM256 320v64h64v-64h-64z" />
    <glyph glyph-name="afii61289" unicode="&#x2113;" 
d="M192 0v64h64v-64h-64zM192 64h-64h-64v64h64v64h64v-64v-64zM192 192v64v64h64v-64v-64h-64zM128 192h-64v64v64h64v-64v-64zM192 320h-64v64h64v-64z" />
    <glyph glyph-name="afii61352" unicode="&#x2116;" 
d="M128 0v64v64v64v64h-64v-64v-64v-64v-64h-64v64v64v64v64v64v64h64v-64h64v64h64h64h64v-64v-64v-64h-64h-64v-64h64h64v-64h-64h-64v-64h-64zM256 256v64h-64v-64h64z" />
    <glyph glyph-name="uni2120" unicode="&#x2120;" 
d="M320 128v64v64h-64v-64v-64h-64v64v64v64v64h64v-64h64v64h64v-64v-64v-64v-64h-64zM64 128h-64v64h64v64h64v-64v-64h-64zM64 256h-64v64v64h64h64v-64h-64v-64z" />
    <glyph glyph-name="trademark" unicode="&#x2122;" 
d="M320 128v64v64h-64v-64v-64h-64v64v64v64v64h64v-64h64v64h64v-64v-64v-64v-64h-64zM64 128h-64v64v64v64v64h64v-64h64v-64h-64v-64h64v-64h-64z" />
    <glyph glyph-name="Ohm" unicode="&#x2126;" 
d="M256 0h-64v64v64h64v-64h64v-64h-64zM64 0h-64v64h64v64h64v-64v-64h-64zM256 128v64v64v64h64v-64v-64v-64h-64zM64 128h-64v64v64v64h64v-64v-64v-64zM256 320h-64h-64h-64v64h64h64h64v-64z" />
    <glyph glyph-name="estimated" unicode="&#x212e;" 
d="M192 64h64v-64h-64h-64h-64v64h-64v64v64v64h64v64h64h64h64v-64h64v-64v-64h-64h-64h-64v-64h64zM192 192v64h-64v-64h64z" />
    <glyph glyph-name="oneeighth" unicode="&#x215b;" 
d="M0 64v64h64v-64h-64zM0 256v64v64h64v-64v-64h-64zM256 0h-64h-64v64v64h-64v64h64v64h64v64h64v-64h64v-64v-64v-64v-64h-64zM256 128v64h-64v-64h64zM256 320v64h64v-64h-64z" />
    <glyph glyph-name="threeeighths" unicode="&#x215c;" 
d="M0 64v64h64v-64h-64zM256 0h-64h-64v64v64h-64v64h-64v64h64v64h-64v64h64h64v-64v-64h64v64h64v-64h64v-64v-64v-64v-64h-64zM256 128v64h-64v-64h64zM256 320v64h64v-64h-64z" />
    <glyph glyph-name="fiveeighths" unicode="&#x215d;" 
d="M0 64v64h64v-64h-64zM256 0h-64h-64v64v64h-64v64h-64v64h64v64v64h64h64v-64h-64v-64h64v64h64v-64h64v-64v-64v-64v-64h-64zM256 128v64h-64v-64h64zM256 320v64h64v-64h-64z" />
    <glyph glyph-name="seveneighths" unicode="&#x215e;" 
d="M0 64v64h64v-64h-64zM256 0h-64h-64v64v64h-64v64v64v64h-64v64h64h64v-64v-64h64v64h64v-64h64v-64v-64v-64v-64h-64zM256 128v64h-64v-64h64zM256 320v64h64v-64h-64z" />
    <glyph glyph-name="partialdiff" unicode="&#x2202;" 
d="M192 64h64v-64h-64h-64h-64v64h64h64zM256 64v64v64h-64h-64h-64v-64v-64h-64v64v64h64v64h64h64h64v64h64v-64v-64v-64v-64h-64zM256 320h-64h-64v64h64h64v-64z" />
    <glyph glyph-name="Delta" unicode="&#x2206;" 
d="M256 0h-64h-64h-64h-64v64v64h64v-64h64h64h64v64h64v-64v-64h-64zM256 128h-64v64v64h64v-64v-64zM64 128v64v64h64v-64v-64h-64zM192 256h-64v64v64h64v-64v-64z" />
    <glyph glyph-name="product" unicode="&#x220f;" 
d="M256 0v64v64v64v64v64h-64h-64h-64v-64v-64v-64v-64v-64h-64v64v64v64v64v64v64h64h64h64h64h64v-64v-64v-64v-64v-64v-64h-64z" />
    <glyph glyph-name="summation" unicode="&#x2211;" 
d="M256 64h64v-64h-64h-64h-64h-64h-64v64v64h64v-64h64h64h64zM64 128v64h64v-64h-64zM128 192v64h64v-64h-64zM128 256h-64v64h-64v64h64h64h64h64h64v-64h-64h-64h-64v-64z" />
    <glyph glyph-name="minus" unicode="&#x2212;" 
d="M256 192h64v-64h-64h-64h-64h-64h-64v64h64h64h64h64z" />
    <glyph glyph-name="divisionslash" unicode="&#x2215;" 
d="M0 64v64h64v-64h-64zM64 128v64h64v-64h-64zM128 192v64h64v-64h-64zM192 256v64h64v-64h-64zM256 320v64h64v-64h-64z" />
    <glyph glyph-name="bulletoperator" unicode="&#x2219;" 
d="M128 128v64v64h64v-64v-64h-64z" />
    <glyph glyph-name="radical" unicode="&#x221a;" 
d="M128 0v64h64v-64h-64zM192 64v64v64v64v64v64h64h64v-64h-64v-64v-64v-64v-64h-64zM128 64h-64v64h-64v64h64h64v-64v-64z" />
    <glyph glyph-name="infinity" unicode="&#x221e;" 
d="M256 64h-64v64h-64v-64h-64h-64v64v64v64v64h64h64v-64h-64v-64v-64h64v64v64h64v64h64h64v-64v-64v-64v-64h-64zM256 128v64v64h-64v-64v-64h64z" />
    <glyph glyph-name="integral" unicode="&#x222b;" 
d="M128 0h-64v64v64h64v64v64v64v64h64h64v-64v-64h-64v-64v-64v-64v-64h-64z" />
    <glyph glyph-name="approxequal" unicode="&#x2248;" 
d="M0 0v64h64v-64h-64zM0 192v64h64v-64h-64zM192 0h-64v64h-64v64h64h64v-64h64v-64h-64zM256 64v64h64v-64h-64zM192 192h-64v64h-64v64h64h64v-64h64v-64h-64zM256 256v64h64v-64h-64z" />
    <glyph glyph-name="notequal" unicode="&#x2260;" 
d="M64 0v64h-64v64h64h64v64h-64h-64v64h64h64h64v64h64v-64h64v-64h-64h-64v-64h64h64v-64h-64h-64h-64v-64h-64z" />
    <glyph glyph-name="lessequal" unicode="&#x2264;" 
d="M192 128v64h64v-64h-64zM192 64h64v-64h-64h-64h-64v64h64h64zM192 192h-64v64h64v-64zM128 256h-64v64h64v-64zM128 320v64h64v-64h-64zM192 384v64h64v-64h-64z" />
    <glyph glyph-name="greaterequal" unicode="&#x2265;" 
d="M64 128v64h64v-64h-64zM192 64h64v-64h-64h-64h-64v64h64h64zM128 192v64h64v-64h-64zM192 256v64h64v-64h-64zM192 320h-64v64h64v-64zM128 384h-64v64h64v-64z" />
    <glyph glyph-name="SF100000" unicode="&#x2500;" 
d="M320 128h-64h-64h-64h-64h-64v64v64h64h64h64h64h64h64v-64v-64h-64z" />
    <glyph glyph-name="SF110000" unicode="&#x2502;" 
d="M192 0h-64v64v64v64v64v64v64h64h64v-64v-64v-64v-64v-64v-64h-64z" />
    <glyph glyph-name="SF010000" unicode="&#x250c;" 
d="M192 0h-64v64v64v64v64h64h64h64h64v-64v-64h-64h-64v-64v-64h-64z" />
    <glyph glyph-name="SF030000" unicode="&#x2510;" 
d="M192 0h-64v64v64h-64h-64v64v64h64h64h64h64v-64v-64v-64v-64h-64z" />
    <glyph glyph-name="SF020000" unicode="&#x2514;" 
d="M320 128h-64h-64h-64v64v64v64v64h64h64v-64v-64h64h64v-64v-64h-64z" />
    <glyph glyph-name="SF040000" unicode="&#x2518;" 
d="M192 128h-64h-64h-64v64v64h64h64v64v64h64h64v-64v-64v-64v-64h-64z" />
    <glyph glyph-name="H22073" unicode="&#x25a1;" 
d="M256 0h-64h-64h-64h-64v64v64v64v64v64h64h64h64h64h64v-64v-64v-64v-64v-64h-64zM192 64h64v64v64v64h-64h-64h-64v-64v-64v-64h64h64z" />
    <glyph glyph-name="blacksmallsquare" unicode="&#x25aa;" 
d="M192 64h-64h-64v64v64v64v64h64h64h64v-64v-64v-64v-64h-64z" />
    <glyph glyph-name="H18551" unicode="&#x25ab;" 
d="M192 64h-64h-64v64v64v64v64h64h64h64v-64v-64v-64v-64h-64zM192 128v64v64h-64v-64v-64h64z" />
    <glyph glyph-name="lozenge" unicode="&#x25ca;" 
d="M128 0v64h64v-64h-64zM192 64v64h64v-64h-64zM128 64h-64v64h64v-64zM256 128v64h64v-64h-64zM64 128h-64v64h64v-64zM256 192h-64v64h64v-64zM64 192v64h64v-64h-64zM192 256h-64v64h64v-64z" />
    <glyph glyph-name="blackcircle" unicode="&#x25cf;" 
d="M128 64v64h-64v64v64h64v64h64v-64h64v-64v-64h-64v-64h-64z" />
    <glyph glyph-name="openbullet" unicode="&#x25e6;" 
d="M128 64v64h64v-64h-64zM192 128v64v64h64v-64v-64h-64zM128 128h-64v64v64h64v-64v-64zM192 256h-64v64h64v-64z" />
    <glyph glyph-name="musicalnote" unicode="&#x266a;" 
d="M64 0v64h-64v64h64v64h64v64v64v64h64v-64h64v-64h64v-64h-64v64h-64v-64v-64v-64h-64v-64h-64z" />
    <glyph glyph-name="ideographicspace" unicode="&#x3000;" 
 />
    <glyph glyph-name="apple" unicode="&#xf8ff;" 
d="M192 0h-64h-64v64h-64v64v64v64v64h64v64h64v-64h64v64h64v-64h64v-64h-64h-64v-64h64v-64h64v-64h-64v-64h-64zM192 384h-64v64h64v-64zM192 448v64h64v-64h-64z" />
    <glyph glyph-name="fi" unicode="&#xfb01;" 
d="M256 0h-64h-64h-64v64v64v64h-64v64h64v64h64v-64h64h64v-64v-64v-64h64v-64h-64zM192 64v64v64h-64v-64v-64h64zM192 384h64v-64h-64h-64v64h64z" />
    <glyph glyph-name="fl" unicode="&#xfb02;" 
d="M64 0v64v64v64h-64v64h64v64h64v-64h64v-64h-64v-64v-64v-64h-64zM256 0h-64v64h64v64v64v64v64h-64h-64v64h64h64h64v-64v-64v-64v-64v-64v-64h-64z" />
    <glyph glyph-name=".null" horiz-adv-x="0" 
 />
    <glyph glyph-name="nonmarkingreturn" 
 />
  </font>
</defs>
</svg>
